<svg xmlns="http://www.w3.org/2000/svg" xmlns:xlink="http://www.w3.org/1999/xlink" width="500" zoomAndPan="magnify" viewBox="0 0 375 374.999991" height="500" preserveAspectRatio="xMidYMid meet" version="1.0"><defs><g/><clipPath id="ce06c6eb63"><path d="M 24 166.472656 L 101 166.472656 L 101 184.472656 L 24 184.472656 Z M 24 166.472656 " clip-rule="nonzero"/></clipPath><clipPath id="e73cf9bb76"><path d="M 315 161 L 375 161 L 375 177 L 315 177 Z M 315 161 " clip-rule="nonzero"/></clipPath><clipPath id="0ec24ead72"><path d="M 317.171875 154.449219 L 409.121094 161.910156 L 407.363281 183.589844 L 315.414062 176.128906 Z M 317.171875 154.449219 " clip-rule="nonzero"/></clipPath><clipPath id="bb6ab66d4a"><path d="M 407.121094 183.664062 L 315.171875 176.203125 L 316.933594 154.523438 L 408.878906 161.984375 Z M 407.121094 183.664062 " clip-rule="nonzero"/></clipPath><clipPath id="894119f1cd"><path d="M 407.121094 183.664062 L 315.171875 176.203125 L 316.933594 154.523438 L 408.878906 161.984375 Z M 407.121094 183.664062 " clip-rule="nonzero"/></clipPath><clipPath id="3b6accd90f"><path d="M 162.578125 139.632812 L 196.234375 139.632812 L 196.234375 169.152344 L 162.578125 169.152344 Z M 162.578125 139.632812 " clip-rule="nonzero"/></clipPath><clipPath id="8df7c78137"><path d="M 163.910156 144.441406 C 161.1875 148.929688 163.105469 153.300781 165.519531 155.617188 L 179.621094 169.152344 L 193.429688 155.667969 C 195.671875 153.171875 196.535156 150.527344 196.054688 147.578125 C 195.394531 143.503906 192.039062 140.34375 187.886719 139.890625 C 185.34375 139.617188 182.886719 140.335938 180.964844 141.929688 C 180.449219 142.359375 179.988281 142.839844 179.585938 143.359375 C 179.109375 142.765625 178.550781 142.222656 177.917969 141.742188 C 175.710938 140.066406 172.902344 139.402344 170.203125 139.917969 C 167.648438 140.410156 165.355469 142.058594 163.910156 144.441406 Z M 163.910156 144.441406 " clip-rule="nonzero"/></clipPath></defs><g clip-path="url(#ce06c6eb63)"><path fill="#000000" d="M 26.582031 183.816406 C 26.773438 183.382812 26.699219 182.851562 26.386719 182.535156 C 26.355469 182.503906 26.324219 182.460938 26.289062 182.4375 C 26.226562 182.402344 26.167969 182.347656 26.097656 182.292969 C 26.097656 182.292969 26.09375 182.289062 26.09375 182.28125 C 26.085938 182.28125 26.085938 182.28125 26.085938 182.28125 C 25.808594 182.023438 25.546875 181.613281 25.382812 181.304688 C 25.375 181.125 25.386719 180.921875 25.417969 180.6875 C 25.546875 179.488281 26.539062 178.242188 28.398438 176.933594 C 29.445312 176.167969 30.765625 175.4375 32.359375 174.746094 C 34.015625 174.050781 36.011719 173.441406 38.355469 172.9375 C 43.433594 171.875 48.332031 171.617188 53.058594 172.160156 C 57.71875 172.707031 62.5 173.214844 67.417969 173.671875 C 70.109375 173.972656 72.832031 174.140625 75.566406 174.175781 C 78.300781 174.210938 81.183594 174.039062 84.199219 173.652344 C 90.765625 172.820312 95.632812 171.324219 98.792969 169.15625 C 99.511719 168.652344 100.160156 168.207031 100.765625 167.808594 C 100.824219 167.589844 100.890625 167.371094 100.953125 167.152344 C 100.925781 166.925781 100.894531 166.699219 100.859375 166.472656 C 100.117188 166.976562 99.269531 167.550781 98.28125 168.210938 C 95.046875 170.320312 90.347656 171.769531 84.167969 172.558594 C 78.921875 173.25 73.917969 173.253906 69.183594 172.582031 C 64.382812 171.914062 59.5625 171.414062 54.730469 171.078125 C 52.113281 170.902344 49.441406 170.855469 46.71875 170.949219 C 44.003906 171.039062 41.210938 171.40625 38.347656 172.035156 C 35.554688 172.660156 33.230469 173.371094 31.382812 174.152344 C 29.613281 174.992188 28.207031 175.832031 27.164062 176.660156 C 25.15625 178.316406 24.1875 179.855469 24.277344 181.289062 L 24.332031 181.777344 C 24.34375 181.90625 24.363281 182.027344 24.386719 182.144531 C 24.40625 182.425781 24.40625 182.714844 24.375 182.96875 C 24.359375 183.148438 24.371094 183.335938 24.386719 183.515625 C 24.4375 183.964844 24.921875 184.398438 25.449219 184.464844 " fill-opacity="1" fill-rule="nonzero"/></g><g fill="#000000" fill-opacity="1"><g transform="translate(58.96567, 177.415205)"><g><path d="M 94.6875 -27.21875 C 97.445312 -27.601562 99.847656 -27.921875 101.890625 -28.171875 C 103.929688 -28.421875 105.515625 -28.566406 106.640625 -28.609375 C 106.984375 -28.566406 107.164062 -28.375 107.1875 -28.03125 C 107.21875 -27.6875 107.085938 -27.460938 106.796875 -27.359375 C 105.953125 -27.304688 104.398438 -27.117188 102.140625 -26.796875 C 99.878906 -26.484375 97.300781 -26.109375 94.40625 -25.671875 C 93.46875 -20.554688 92.53125 -15.488281 91.59375 -10.46875 C 90.664062 -5.457031 89.878906 -0.765625 89.234375 3.609375 C 88.597656 7.984375 88.191406 11.804688 88.015625 15.078125 C 87.847656 18.347656 87.992188 20.796875 88.453125 22.421875 C 88.921875 24.046875 89.847656 24.585938 91.234375 24.046875 C 93.191406 23.253906 95.300781 21.800781 97.5625 19.6875 C 99.832031 17.570312 102.144531 15.0625 104.5 12.15625 C 106.863281 9.257812 109.160156 6.238281 111.390625 3.09375 C 113.628906 -0.0507812 115.695312 -3.046875 117.59375 -5.890625 C 119.488281 -8.742188 121.125 -11.203125 122.5 -13.265625 C 123.875 -15.335938 124.859375 -16.71875 125.453125 -17.40625 C 125.597656 -17.601562 125.84375 -17.675781 126.1875 -17.625 C 126.53125 -17.570312 126.703125 -17.445312 126.703125 -17.25 C 125.273438 -15.144531 123.550781 -12.578125 121.53125 -9.546875 C 119.519531 -6.523438 117.347656 -3.320312 115.015625 0.0625 C 112.679688 3.457031 110.285156 6.753906 107.828125 9.953125 C 105.367188 13.148438 102.96875 16 100.625 18.5 C 98.289062 21.007812 96.128906 22.914062 94.140625 24.21875 C 92.148438 25.53125 90.441406 25.9375 89.015625 25.4375 C 87.191406 24.800781 85.875 23.4375 85.0625 21.34375 C 84.257812 19.257812 83.832031 16.59375 83.78125 13.34375 C 83.726562 10.101562 83.945312 6.453125 84.4375 2.390625 C 84.9375 -1.660156 85.566406 -5.992188 86.328125 -10.609375 C 87.085938 -15.234375 87.859375 -19.957031 88.640625 -24.78125 C 85.296875 -24.1875 82.023438 -23.484375 78.828125 -22.671875 C 75.640625 -21.867188 72.359375 -20.945312 68.984375 -19.90625 C 65.617188 -18.875 61.945312 -17.722656 57.96875 -16.453125 C 57.132812 -11.972656 56.257812 -7.601562 55.34375 -3.34375 C 54.4375 0.90625 53.625 4.882812 52.90625 8.59375 C 52.195312 12.300781 51.644531 15.554688 51.25 18.359375 C 50.863281 21.160156 50.769531 23.375 50.96875 25 C 51.113281 26.082031 50.890625 26.84375 50.296875 27.28125 C 49.703125 27.726562 49.023438 27.816406 48.265625 27.546875 C 47.503906 27.273438 46.925781 26.695312 46.53125 25.8125 C 45.945312 24.488281 45.75 22.5 45.9375 19.84375 C 46.132812 17.1875 46.585938 14.023438 47.296875 10.359375 C 48.015625 6.703125 48.863281 2.734375 49.84375 -1.546875 C 50.832031 -5.828125 51.84375 -10.253906 52.875 -14.828125 C 50.269531 -13.941406 47.765625 -13.003906 45.359375 -12.015625 C 42.953125 -11.035156 40.664062 -10.03125 38.5 -9 C 38.25 -8.945312 38.035156 -9.101562 37.859375 -9.46875 C 37.691406 -9.84375 37.804688 -10.128906 38.203125 -10.328125 C 40.515625 -11.453125 42.921875 -12.503906 45.421875 -13.484375 C 47.929688 -14.472656 50.515625 -15.410156 53.171875 -16.296875 C 54.304688 -21.265625 55.328125 -26.226562 56.234375 -31.1875 C 57.140625 -36.15625 57.800781 -40.851562 58.21875 -45.28125 C 58.644531 -49.707031 58.671875 -53.675781 58.296875 -57.1875 C 57.929688 -60.707031 57.035156 -63.535156 55.609375 -65.671875 C 54.179688 -67.804688 52.039062 -69.050781 49.1875 -69.40625 C 46.488281 -69.695312 43.910156 -69.265625 41.453125 -68.109375 C 38.992188 -66.953125 36.753906 -65.265625 34.734375 -63.046875 C 32.722656 -60.835938 30.976562 -58.269531 29.5 -55.34375 C 28.019531 -52.425781 26.898438 -49.34375 26.140625 -46.09375 C 25.378906 -42.84375 25.050781 -39.644531 25.15625 -36.5 C 29.132812 -34.4375 32.238281 -32.320312 34.46875 -30.15625 C 36.707031 -28 38.242188 -25.910156 39.078125 -23.890625 C 39.921875 -21.878906 40.269531 -20.0625 40.125 -18.4375 C 39.976562 -16.8125 39.5 -15.484375 38.6875 -14.453125 C 37.875 -13.421875 36.925781 -12.832031 35.84375 -12.6875 C 33.976562 -12.4375 32.125 -13.085938 30.28125 -14.640625 C 28.4375 -16.191406 26.875 -18.710938 25.59375 -22.203125 C 24.3125 -25.691406 23.625 -30.238281 23.53125 -35.84375 C 19.695312 -37.363281 16.316406 -38.035156 13.390625 -37.859375 C 10.460938 -37.691406 8.050781 -36.929688 6.15625 -35.578125 C 4.257812 -34.234375 2.894531 -32.523438 2.0625 -30.453125 C 1.226562 -28.390625 0.992188 -26.203125 1.359375 -23.890625 C 1.734375 -21.578125 2.726562 -19.390625 4.34375 -17.328125 L 2.4375 -17.328125 C 0.90625 -19.785156 0.0820312 -22.28125 -0.03125 -24.8125 C -0.15625 -27.34375 0.304688 -29.664062 1.359375 -31.78125 C 2.421875 -33.894531 4.007812 -35.613281 6.125 -36.9375 C 8.238281 -38.269531 10.78125 -38.984375 13.75 -39.078125 C 16.726562 -39.179688 20.035156 -38.445312 23.671875 -36.875 C 23.671875 -41.300781 24.332031 -45.578125 25.65625 -49.703125 C 26.988281 -53.835938 28.832031 -57.515625 31.1875 -60.734375 C 33.550781 -63.953125 36.269531 -66.457031 39.34375 -68.25 C 42.414062 -70.050781 45.695312 -70.828125 49.1875 -70.578125 C 52.382812 -70.378906 54.90625 -69.234375 56.75 -67.140625 C 58.59375 -65.054688 59.882812 -62.28125 60.625 -58.8125 C 61.363281 -55.34375 61.691406 -51.394531 61.609375 -46.96875 C 61.535156 -42.550781 61.191406 -37.867188 60.578125 -32.921875 C 59.960938 -27.984375 59.191406 -23.007812 58.265625 -18 C 62.296875 -19.269531 66.003906 -20.410156 69.390625 -21.421875 C 72.785156 -22.429688 76.054688 -23.328125 79.203125 -24.109375 C 82.347656 -24.898438 85.59375 -25.59375 88.9375 -26.1875 C 89.675781 -29.769531 90.363281 -33.414062 91 -37.125 C 91.644531 -40.84375 92.238281 -44.445312 92.78125 -47.9375 C 93.320312 -51.425781 93.765625 -54.644531 94.109375 -57.59375 C 94.453125 -60.550781 94.679688 -63.0625 94.796875 -65.125 C 94.921875 -67.1875 94.882812 -68.613281 94.6875 -69.40625 C 94.539062 -70.1875 94.648438 -70.773438 95.015625 -71.171875 C 95.390625 -71.566406 95.882812 -71.785156 96.5 -71.828125 C 97.113281 -71.878906 97.675781 -71.769531 98.1875 -71.5 C 98.707031 -71.226562 99.039062 -70.796875 99.1875 -70.203125 C 99.726562 -69.128906 99.972656 -67.191406 99.921875 -64.390625 C 99.878906 -61.585938 99.609375 -58.207031 99.109375 -54.25 C 98.617188 -50.289062 97.976562 -45.988281 97.1875 -41.34375 C 96.40625 -36.695312 95.570312 -31.988281 94.6875 -27.21875 Z M 36.28125 -13.71875 C 36.96875 -13.863281 37.566406 -14.398438 38.078125 -15.328125 C 38.597656 -16.265625 38.859375 -17.457031 38.859375 -18.90625 C 38.859375 -20.363281 38.425781 -21.988281 37.5625 -23.78125 C 36.707031 -25.570312 35.269531 -27.453125 33.25 -29.421875 C 31.238281 -31.390625 28.460938 -33.332031 24.921875 -35.25 C 25.171875 -30.53125 25.703125 -26.707031 26.515625 -23.78125 C 27.328125 -20.851562 28.296875 -18.613281 29.421875 -17.0625 C 30.554688 -15.519531 31.722656 -14.515625 32.921875 -14.046875 C 34.128906 -13.578125 35.25 -13.46875 36.28125 -13.71875 Z M 36.28125 -13.71875 "/></g></g></g><g fill="#000000" fill-opacity="1"><g transform="translate(184.334005, 177.415205)"><g><path d="M 107.3125 24.046875 C 109.269531 23.253906 111.378906 21.800781 113.640625 19.6875 C 115.910156 17.570312 118.222656 15.0625 120.578125 12.15625 C 122.941406 9.257812 125.238281 6.238281 127.46875 3.09375 C 129.707031 -0.0507812 131.773438 -3.046875 133.671875 -5.890625 C 135.566406 -8.742188 137.203125 -11.203125 138.578125 -13.265625 C 139.953125 -15.335938 140.9375 -16.71875 141.53125 -17.40625 C 141.675781 -17.601562 141.921875 -17.675781 142.265625 -17.625 C 142.609375 -17.570312 142.78125 -17.445312 142.78125 -17.25 C 141.351562 -15.144531 139.628906 -12.578125 137.609375 -9.546875 C 135.597656 -6.523438 133.425781 -3.320312 131.09375 0.0625 C 128.757812 3.457031 126.363281 6.753906 123.90625 9.953125 C 121.445312 13.148438 119.046875 16 116.703125 18.5 C 114.367188 21.007812 112.207031 22.914062 110.21875 24.21875 C 108.226562 25.53125 106.519531 25.9375 105.09375 25.4375 C 103.03125 24.75 101.519531 23.285156 100.5625 21.046875 C 99.601562 18.816406 99.035156 16.03125 98.859375 12.6875 C 98.691406 9.34375 98.78125 5.640625 99.125 1.578125 C 99.46875 -2.472656 99.957031 -6.6875 100.59375 -11.0625 C 101.226562 -15.4375 101.863281 -19.773438 102.5 -24.078125 C 103.144531 -28.378906 103.664062 -32.457031 104.0625 -36.3125 C 104.457031 -40.175781 104.578125 -43.609375 104.421875 -46.609375 C 104.273438 -49.609375 103.75 -51.976562 102.84375 -53.71875 C 101.9375 -55.46875 100.5 -56.367188 98.53125 -56.421875 C 95.820312 -56.515625 92.648438 -55.566406 89.015625 -53.578125 C 85.378906 -51.585938 81.566406 -48.476562 77.578125 -44.25 C 73.597656 -40.019531 69.664062 -34.550781 65.78125 -27.84375 C 61.894531 -21.132812 58.359375 -13.109375 55.171875 -3.765625 C 54.921875 -2.429688 54.597656 -0.6875 54.203125 1.46875 C 53.804688 3.632812 53.410156 5.929688 53.015625 8.359375 C 52.628906 10.796875 52.265625 13.171875 51.921875 15.484375 C 51.578125 17.796875 51.316406 19.8125 51.140625 21.53125 C 50.972656 23.25 50.914062 24.40625 50.96875 25 C 51.113281 26.082031 50.890625 26.84375 50.296875 27.28125 C 49.703125 27.726562 49.023438 27.816406 48.265625 27.546875 C 47.503906 27.273438 46.925781 26.695312 46.53125 25.8125 C 45.945312 24.4375 45.75 22.296875 45.9375 19.390625 C 46.132812 16.492188 46.585938 13.066406 47.296875 9.109375 C 48.015625 5.148438 48.878906 0.847656 49.890625 -3.796875 C 50.898438 -8.441406 51.929688 -13.207031 52.984375 -18.09375 C 54.046875 -22.988281 54.984375 -27.832031 55.796875 -32.625 C 56.609375 -37.425781 57.195312 -41.960938 57.5625 -46.234375 C 57.925781 -50.515625 57.925781 -54.335938 57.5625 -57.703125 C 57.195312 -61.078125 56.347656 -63.796875 55.015625 -65.859375 C 53.691406 -67.921875 51.75 -69.101562 49.1875 -69.40625 C 46.488281 -69.75 43.910156 -69.34375 41.453125 -68.1875 C 38.992188 -67.03125 36.753906 -65.332031 34.734375 -63.09375 C 32.722656 -60.851562 30.976562 -58.269531 29.5 -55.34375 C 28.019531 -52.425781 26.898438 -49.34375 26.140625 -46.09375 C 25.378906 -42.84375 25.050781 -39.644531 25.15625 -36.5 C 29.132812 -34.4375 32.238281 -32.320312 34.46875 -30.15625 C 36.707031 -28 38.242188 -25.910156 39.078125 -23.890625 C 39.921875 -21.878906 40.269531 -20.0625 40.125 -18.4375 C 39.976562 -16.8125 39.5 -15.484375 38.6875 -14.453125 C 37.875 -13.421875 36.925781 -12.832031 35.84375 -12.6875 C 33.976562 -12.4375 32.125 -13.085938 30.28125 -14.640625 C 28.4375 -16.191406 26.875 -18.710938 25.59375 -22.203125 C 24.3125 -25.691406 23.625 -30.238281 23.53125 -35.84375 C 19.695312 -37.363281 16.316406 -38.035156 13.390625 -37.859375 C 10.460938 -37.691406 8.050781 -36.929688 6.15625 -35.578125 C 4.257812 -34.234375 2.894531 -32.523438 2.0625 -30.453125 C 1.226562 -28.390625 0.992188 -26.203125 1.359375 -23.890625 C 1.734375 -21.578125 2.726562 -19.390625 4.34375 -17.328125 L 2.4375 -17.328125 C 0.90625 -19.785156 0.0820312 -22.28125 -0.03125 -24.8125 C -0.15625 -27.34375 0.304688 -29.664062 1.359375 -31.78125 C 2.421875 -33.894531 4.007812 -35.613281 6.125 -36.9375 C 8.238281 -38.269531 10.78125 -38.984375 13.75 -39.078125 C 16.726562 -39.179688 20.035156 -38.445312 23.671875 -36.875 C 23.671875 -41.300781 24.332031 -45.585938 25.65625 -49.734375 C 26.988281 -53.890625 28.832031 -57.578125 31.1875 -60.796875 C 33.550781 -64.023438 36.269531 -66.535156 39.34375 -68.328125 C 42.414062 -70.117188 45.695312 -70.867188 49.1875 -70.578125 C 52.332031 -70.328125 54.789062 -69.035156 56.5625 -66.703125 C 58.332031 -64.367188 59.5625 -61.234375 60.25 -57.296875 C 60.9375 -53.367188 61.171875 -48.875 60.953125 -43.8125 C 60.734375 -38.75 60.164062 -33.335938 59.25 -27.578125 C 58.34375 -21.828125 57.226562 -15.976562 55.90625 -10.03125 C 59.144531 -18.6875 62.726562 -26.085938 66.65625 -32.234375 C 70.59375 -38.378906 74.613281 -43.390625 78.71875 -47.265625 C 82.832031 -51.148438 86.78125 -53.953125 90.5625 -55.671875 C 94.351562 -57.398438 97.722656 -58.140625 100.671875 -57.890625 C 103.078125 -57.691406 104.921875 -56.582031 106.203125 -54.5625 C 107.484375 -52.550781 108.304688 -49.875 108.671875 -46.53125 C 109.035156 -43.1875 109.09375 -39.425781 108.84375 -35.25 C 108.601562 -31.070312 108.175781 -26.695312 107.5625 -22.125 C 106.945312 -17.550781 106.304688 -12.988281 105.640625 -8.4375 C 104.984375 -3.894531 104.394531 0.378906 103.875 4.390625 C 103.363281 8.398438 103.066406 11.925781 102.984375 14.96875 C 102.910156 18.019531 103.207031 20.367188 103.875 22.015625 C 104.539062 23.660156 105.6875 24.335938 107.3125 24.046875 Z M 36.28125 -13.71875 C 36.96875 -13.863281 37.566406 -14.398438 38.078125 -15.328125 C 38.597656 -16.265625 38.859375 -17.457031 38.859375 -18.90625 C 38.859375 -20.363281 38.425781 -21.988281 37.5625 -23.78125 C 36.707031 -25.570312 35.269531 -27.453125 33.25 -29.421875 C 31.238281 -31.390625 28.460938 -33.332031 24.921875 -35.25 C 25.171875 -30.53125 25.703125 -26.707031 26.515625 -23.78125 C 27.328125 -20.851562 28.296875 -18.613281 29.421875 -17.0625 C 30.554688 -15.519531 31.722656 -14.515625 32.921875 -14.046875 C 34.128906 -13.578125 35.25 -13.46875 36.28125 -13.71875 Z M 36.28125 -13.71875 "/></g></g></g><g clip-path="url(#e73cf9bb76)"><g clip-path="url(#0ec24ead72)"><g clip-path="url(#bb6ab66d4a)"><g clip-path="url(#894119f1cd)"><path fill="#000000" d="M 405.664062 162.519531 C 405.394531 163.023438 405.429688 163.667969 405.773438 164.082031 C 405.804688 164.121094 405.839844 164.175781 405.878906 164.207031 C 405.949219 164.253906 406.015625 164.328125 406.089844 164.398438 C 406.089844 164.398438 406.097656 164.40625 406.097656 164.414062 C 406.105469 164.414062 406.105469 164.414062 406.105469 164.414062 C 406.40625 164.753906 406.683594 165.269531 406.847656 165.65625 C 406.839844 165.875 406.804688 166.121094 406.746094 166.398438 C 406.472656 167.828125 405.171875 169.234375 402.832031 170.632812 C 401.507812 171.453125 399.867188 172.203125 397.902344 172.882812 C 395.867188 173.5625 393.425781 174.101562 390.589844 174.484375 C 384.445312 175.269531 378.589844 175.109375 373.015625 174 C 367.523438 172.890625 361.882812 171.820312 356.074219 170.792969 C 352.898438 170.171875 349.675781 169.707031 346.425781 169.398438 C 343.175781 169.089844 339.726562 169.023438 336.097656 169.195312 C 328.203125 169.5625 322.261719 170.894531 318.292969 173.199219 C 317.386719 173.738281 316.570312 174.214844 315.8125 174.632812 C 315.722656 174.890625 315.621094 175.148438 315.523438 175.40625 C 315.535156 175.683594 315.550781 175.957031 315.570312 176.234375 C 316.503906 175.695312 317.570312 175.089844 318.804688 174.386719 C 322.863281 172.164062 328.597656 170.871094 336.027344 170.515625 C 342.34375 170.191406 348.296875 170.667969 353.867188 171.933594 C 359.515625 173.203125 365.199219 174.269531 370.917969 175.140625 C 374.015625 175.605469 377.195312 175.921875 380.441406 176.070312 C 383.683594 176.222656 387.039062 176.050781 390.507812 175.574219 C 393.898438 175.089844 396.734375 174.457031 399.003906 173.695312 C 401.195312 172.851562 402.949219 171.980469 404.269531 171.078125 C 406.828125 169.28125 408.128906 167.519531 408.160156 165.785156 L 408.140625 165.191406 C 408.140625 165.03125 408.128906 164.886719 408.113281 164.746094 C 408.117188 164.402344 408.148438 164.054688 408.207031 163.753906 C 408.246094 163.539062 408.25 163.3125 408.246094 163.09375 C 408.234375 162.542969 407.699219 161.976562 407.078125 161.84375 " fill-opacity="1" fill-rule="nonzero"/></g></g></g></g><g clip-path="url(#3b6accd90f)"><g clip-path="url(#8df7c78137)"><path fill="#000000" d="M 162.578125 139.746094 L 196.234375 139.746094 L 196.234375 169.152344 L 162.578125 169.152344 Z M 162.578125 139.746094 " fill-opacity="1" fill-rule="nonzero"/></g></g><g fill="#000000" fill-opacity="1"><g transform="translate(37.023444, 224.809804)"><g><path d="M 16.09375 -0.265625 C 16.144531 -0.265625 16.171875 -0.21875 16.171875 -0.125 C 16.171875 -0.0390625 16.144531 0 16.09375 0 C 15.632812 0 15.269531 -0.00390625 15 -0.015625 L 13.46875 -0.046875 L 11.8125 -0.015625 C 11.5625 -0.00390625 11.210938 0 10.765625 0 C 10.722656 0 10.703125 -0.0390625 10.703125 -0.125 C 10.703125 -0.21875 10.722656 -0.265625 10.765625 -0.265625 C 11.347656 -0.265625 11.769531 -0.300781 12.03125 -0.375 C 12.300781 -0.445312 12.484375 -0.59375 12.578125 -0.8125 C 12.679688 -1.03125 12.734375 -1.363281 12.734375 -1.8125 L 12.734375 -7.03125 L 4.171875 -7.03125 L 4.171875 -1.8125 C 4.171875 -1.363281 4.21875 -1.03125 4.3125 -0.8125 C 4.40625 -0.59375 4.585938 -0.445312 4.859375 -0.375 C 5.128906 -0.300781 5.550781 -0.265625 6.125 -0.265625 C 6.15625 -0.265625 6.171875 -0.21875 6.171875 -0.125 C 6.171875 -0.0390625 6.15625 0 6.125 0 C 5.664062 0 5.304688 -0.00390625 5.046875 -0.015625 L 3.4375 -0.046875 L 1.890625 -0.015625 C 1.628906 -0.00390625 1.257812 0 0.78125 0 C 0.75 0 0.734375 -0.0390625 0.734375 -0.125 C 0.734375 -0.21875 0.75 -0.265625 0.78125 -0.265625 C 1.34375 -0.265625 1.757812 -0.300781 2.03125 -0.375 C 2.3125 -0.445312 2.5 -0.59375 2.59375 -0.8125 C 2.695312 -1.03125 2.75 -1.363281 2.75 -1.8125 L 2.75 -12.125 C 2.75 -12.570312 2.695312 -12.898438 2.59375 -13.109375 C 2.5 -13.316406 2.316406 -13.460938 2.046875 -13.546875 C 1.785156 -13.628906 1.367188 -13.671875 0.796875 -13.671875 C 0.773438 -13.671875 0.765625 -13.710938 0.765625 -13.796875 C 0.765625 -13.890625 0.773438 -13.9375 0.796875 -13.9375 L 1.9375 -13.90625 C 2.5625 -13.882812 3.0625 -13.875 3.4375 -13.875 C 3.863281 -13.875 4.40625 -13.882812 5.0625 -13.90625 L 6.125 -13.9375 C 6.15625 -13.9375 6.171875 -13.890625 6.171875 -13.796875 C 6.171875 -13.710938 6.15625 -13.671875 6.125 -13.671875 C 5.5625 -13.671875 5.140625 -13.625 4.859375 -13.53125 C 4.585938 -13.445312 4.40625 -13.296875 4.3125 -13.078125 C 4.21875 -12.859375 4.171875 -12.523438 4.171875 -12.078125 L 4.171875 -7.484375 L 12.734375 -7.484375 L 12.734375 -12.078125 C 12.734375 -12.523438 12.679688 -12.859375 12.578125 -13.078125 C 12.484375 -13.296875 12.300781 -13.445312 12.03125 -13.53125 C 11.769531 -13.625 11.347656 -13.671875 10.765625 -13.671875 C 10.722656 -13.671875 10.703125 -13.710938 10.703125 -13.796875 C 10.703125 -13.890625 10.722656 -13.9375 10.765625 -13.9375 L 11.8125 -13.90625 C 12.46875 -13.882812 13.019531 -13.875 13.46875 -13.875 C 13.863281 -13.875 14.375 -13.882812 15 -13.90625 L 16.09375 -13.9375 C 16.144531 -13.9375 16.171875 -13.890625 16.171875 -13.796875 C 16.171875 -13.710938 16.144531 -13.671875 16.09375 -13.671875 C 15.53125 -13.671875 15.113281 -13.628906 14.84375 -13.546875 C 14.582031 -13.460938 14.398438 -13.316406 14.296875 -13.109375 C 14.203125 -12.898438 14.15625 -12.570312 14.15625 -12.125 L 14.15625 -1.8125 C 14.15625 -1.363281 14.203125 -1.03125 14.296875 -0.8125 C 14.398438 -0.59375 14.582031 -0.445312 14.84375 -0.375 C 15.113281 -0.300781 15.53125 -0.265625 16.09375 -0.265625 Z M 16.09375 -0.265625 "/></g></g></g><g fill="#000000" fill-opacity="1"><g transform="translate(56.883737, 224.809804)"><g><path d="M 15.578125 -0.265625 C 15.640625 -0.265625 15.671875 -0.21875 15.671875 -0.125 C 15.671875 -0.0390625 15.640625 0 15.578125 0 C 15.296875 0 14.859375 -0.015625 14.265625 -0.046875 C 13.671875 -0.078125 13.242188 -0.09375 12.984375 -0.09375 C 12.648438 -0.09375 12.234375 -0.078125 11.734375 -0.046875 C 11.253906 -0.015625 10.890625 0 10.640625 0 C 10.578125 0 10.546875 -0.0390625 10.546875 -0.125 C 10.546875 -0.21875 10.578125 -0.265625 10.640625 -0.265625 C 11.179688 -0.265625 11.578125 -0.316406 11.828125 -0.421875 C 12.085938 -0.523438 12.21875 -0.703125 12.21875 -0.953125 C 12.21875 -1.160156 12.117188 -1.484375 11.921875 -1.921875 L 9.9375 -6.125 L 4.640625 -6.125 L 3.234375 -2.828125 C 3.023438 -2.328125 2.921875 -1.921875 2.921875 -1.609375 C 2.921875 -1.148438 3.101562 -0.8125 3.46875 -0.59375 C 3.832031 -0.375 4.378906 -0.265625 5.109375 -0.265625 C 5.179688 -0.265625 5.21875 -0.21875 5.21875 -0.125 C 5.21875 -0.0390625 5.179688 0 5.109375 0 C 4.835938 0 4.453125 -0.015625 3.953125 -0.046875 C 3.378906 -0.078125 2.882812 -0.09375 2.46875 -0.09375 C 2.082031 -0.09375 1.640625 -0.078125 1.140625 -0.046875 C 0.691406 -0.015625 0.316406 0 0.015625 0 C -0.0546875 0 -0.09375 -0.0390625 -0.09375 -0.125 C -0.09375 -0.21875 -0.0546875 -0.265625 0.015625 -0.265625 C 0.429688 -0.265625 0.785156 -0.34375 1.078125 -0.5 C 1.367188 -0.65625 1.644531 -0.929688 1.90625 -1.328125 C 2.164062 -1.722656 2.453125 -2.289062 2.765625 -3.03125 L 7.46875 -14.140625 C 7.5 -14.179688 7.550781 -14.203125 7.625 -14.203125 C 7.695312 -14.203125 7.742188 -14.179688 7.765625 -14.140625 L 13.015625 -3.046875 C 13.523438 -1.953125 13.957031 -1.210938 14.3125 -0.828125 C 14.664062 -0.453125 15.085938 -0.265625 15.578125 -0.265625 Z M 4.8125 -6.578125 L 9.75 -6.578125 L 7.140625 -12.078125 Z M 4.8125 -6.578125 "/></g></g></g><g fill="#000000" fill-opacity="1"><g transform="translate(75.473564, 224.809804)"><g><path d="M 15.234375 -0.265625 C 15.253906 -0.265625 15.265625 -0.21875 15.265625 -0.125 C 15.265625 -0.0390625 15.253906 0 15.234375 0 L 12.359375 0 C 11.984375 0 11.28125 -0.613281 10.25 -1.84375 C 9.226562 -3.082031 8.007812 -4.78125 6.59375 -6.9375 C 6.195312 -6.84375 5.78125 -6.796875 5.34375 -6.796875 C 5.257812 -6.796875 4.925781 -6.820312 4.34375 -6.875 L 4.34375 -1.8125 C 4.34375 -1.34375 4.382812 -1.003906 4.46875 -0.796875 C 4.5625 -0.585938 4.738281 -0.445312 5 -0.375 C 5.257812 -0.300781 5.675781 -0.265625 6.25 -0.265625 C 6.289062 -0.265625 6.3125 -0.21875 6.3125 -0.125 C 6.3125 -0.0390625 6.289062 0 6.25 0 C 5.78125 0 5.414062 -0.00390625 5.15625 -0.015625 L 3.609375 -0.046875 L 2.09375 -0.015625 C 1.820312 -0.00390625 1.441406 0 0.953125 0 C 0.929688 0 0.921875 -0.0390625 0.921875 -0.125 C 0.921875 -0.21875 0.929688 -0.265625 0.953125 -0.265625 C 1.523438 -0.265625 1.941406 -0.300781 2.203125 -0.375 C 2.472656 -0.445312 2.65625 -0.59375 2.75 -0.8125 C 2.851562 -1.03125 2.90625 -1.363281 2.90625 -1.8125 L 2.90625 -12.125 C 2.90625 -12.570312 2.859375 -12.898438 2.765625 -13.109375 C 2.671875 -13.316406 2.492188 -13.460938 2.234375 -13.546875 C 1.972656 -13.628906 1.5625 -13.671875 1 -13.671875 C 0.957031 -13.671875 0.9375 -13.710938 0.9375 -13.796875 C 0.9375 -13.890625 0.957031 -13.9375 1 -13.9375 L 2.09375 -13.90625 C 2.71875 -13.882812 3.222656 -13.875 3.609375 -13.875 C 3.941406 -13.875 4.25 -13.878906 4.53125 -13.890625 C 4.8125 -13.898438 5.046875 -13.914062 5.234375 -13.9375 C 5.785156 -13.976562 6.285156 -14 6.734375 -14 C 7.910156 -14 8.816406 -13.726562 9.453125 -13.1875 C 10.085938 -12.65625 10.40625 -11.945312 10.40625 -11.0625 C 10.40625 -10.257812 10.171875 -9.535156 9.703125 -8.890625 C 9.242188 -8.242188 8.625 -7.734375 7.84375 -7.359375 C 9.09375 -5.554688 10.144531 -4.144531 11 -3.125 C 11.851562 -2.113281 12.609375 -1.382812 13.265625 -0.9375 C 13.929688 -0.488281 14.585938 -0.265625 15.234375 -0.265625 Z M 4.34375 -7.40625 C 4.71875 -7.34375 5.15625 -7.3125 5.65625 -7.3125 C 6.820312 -7.3125 7.648438 -7.5625 8.140625 -8.0625 C 8.640625 -8.570312 8.890625 -9.351562 8.890625 -10.40625 C 8.890625 -11.570312 8.632812 -12.40625 8.125 -12.90625 C 7.613281 -13.414062 6.867188 -13.671875 5.890625 -13.671875 C 5.304688 -13.671875 4.898438 -13.566406 4.671875 -13.359375 C 4.453125 -13.148438 4.34375 -12.722656 4.34375 -12.078125 Z M 4.34375 -7.40625 "/></g></g></g><g fill="#000000" fill-opacity="1"><g transform="translate(93.417006, 224.809804)"><g><path d="M 3.234375 -11.328125 C 3.234375 -10.742188 3.375 -10.234375 3.65625 -9.796875 C 3.9375 -9.367188 4.28125 -9.007812 4.6875 -8.71875 C 5.101562 -8.4375 5.664062 -8.078125 6.375 -7.640625 C 7.164062 -7.171875 7.769531 -6.78125 8.1875 -6.46875 C 8.613281 -6.15625 8.976562 -5.753906 9.28125 -5.265625 C 9.59375 -4.785156 9.75 -4.210938 9.75 -3.546875 C 9.75 -2.828125 9.566406 -2.175781 9.203125 -1.59375 C 8.847656 -1.019531 8.320312 -0.566406 7.625 -0.234375 C 6.9375 0.0976562 6.113281 0.265625 5.15625 0.265625 C 4.007812 0.265625 2.957031 0.00390625 2 -0.515625 C 1.925781 -0.554688 1.878906 -0.609375 1.859375 -0.671875 C 1.835938 -0.734375 1.820312 -0.820312 1.8125 -0.9375 L 1.515625 -3.96875 C 1.503906 -4.03125 1.535156 -4.066406 1.609375 -4.078125 C 1.691406 -4.097656 1.742188 -4.078125 1.765625 -4.015625 C 2.003906 -2.941406 2.445312 -2.019531 3.09375 -1.25 C 3.738281 -0.476562 4.59375 -0.09375 5.65625 -0.09375 C 6.40625 -0.09375 7.035156 -0.296875 7.546875 -0.703125 C 8.054688 -1.109375 8.3125 -1.757812 8.3125 -2.65625 C 8.3125 -3.320312 8.160156 -3.898438 7.859375 -4.390625 C 7.566406 -4.878906 7.207031 -5.285156 6.78125 -5.609375 C 6.363281 -5.929688 5.789062 -6.304688 5.0625 -6.734375 C 4.34375 -7.160156 3.78125 -7.53125 3.375 -7.84375 C 2.96875 -8.15625 2.625 -8.550781 2.34375 -9.03125 C 2.0625 -9.507812 1.921875 -10.066406 1.921875 -10.703125 C 1.921875 -11.441406 2.113281 -12.078125 2.5 -12.609375 C 2.894531 -13.140625 3.410156 -13.535156 4.046875 -13.796875 C 4.679688 -14.054688 5.351562 -14.1875 6.0625 -14.1875 C 6.9375 -14.1875 7.804688 -14.003906 8.671875 -13.640625 C 8.898438 -13.566406 9.015625 -13.441406 9.015625 -13.265625 L 9.15625 -10.703125 C 9.15625 -10.640625 9.117188 -10.609375 9.046875 -10.609375 C 8.972656 -10.609375 8.929688 -10.640625 8.921875 -10.703125 C 8.796875 -11.472656 8.472656 -12.1875 7.953125 -12.84375 C 7.429688 -13.507812 6.679688 -13.84375 5.703125 -13.84375 C 4.867188 -13.84375 4.25 -13.597656 3.84375 -13.109375 C 3.4375 -12.628906 3.234375 -12.035156 3.234375 -11.328125 Z M 3.234375 -11.328125 "/></g></g></g><g fill="#000000" fill-opacity="1"><g transform="translate(107.303861, 224.809804)"><g><path d="M 4.4375 -1.8125 C 4.4375 -1.363281 4.476562 -1.03125 4.5625 -0.8125 C 4.65625 -0.59375 4.832031 -0.445312 5.09375 -0.375 C 5.351562 -0.300781 5.765625 -0.265625 6.328125 -0.265625 C 6.378906 -0.265625 6.40625 -0.21875 6.40625 -0.125 C 6.40625 -0.0390625 6.378906 0 6.328125 0 C 5.878906 0 5.523438 -0.00390625 5.265625 -0.015625 L 3.671875 -0.046875 L 2.140625 -0.015625 C 1.867188 -0.00390625 1.503906 0 1.046875 0 C 1.003906 0 0.984375 -0.0390625 0.984375 -0.125 C 0.984375 -0.21875 1.003906 -0.265625 1.046875 -0.265625 C 1.609375 -0.265625 2.019531 -0.300781 2.28125 -0.375 C 2.539062 -0.445312 2.71875 -0.59375 2.8125 -0.8125 C 2.914062 -1.03125 2.96875 -1.363281 2.96875 -1.8125 L 2.96875 -12.125 C 2.96875 -12.570312 2.914062 -12.898438 2.8125 -13.109375 C 2.71875 -13.316406 2.539062 -13.460938 2.28125 -13.546875 C 2.019531 -13.628906 1.609375 -13.671875 1.046875 -13.671875 C 1.003906 -13.671875 0.984375 -13.710938 0.984375 -13.796875 C 0.984375 -13.890625 1.003906 -13.9375 1.046875 -13.9375 L 2.140625 -13.90625 C 2.765625 -13.882812 3.273438 -13.875 3.671875 -13.875 C 4.117188 -13.875 4.65625 -13.882812 5.28125 -13.90625 L 6.328125 -13.9375 C 6.378906 -13.9375 6.40625 -13.890625 6.40625 -13.796875 C 6.40625 -13.710938 6.378906 -13.671875 6.328125 -13.671875 C 5.773438 -13.671875 5.367188 -13.625 5.109375 -13.53125 C 4.859375 -13.445312 4.679688 -13.296875 4.578125 -13.078125 C 4.484375 -12.859375 4.4375 -12.523438 4.4375 -12.078125 Z M 4.4375 -1.8125 "/></g></g></g><g fill="#000000" fill-opacity="1"><g transform="translate(117.646768, 224.809804)"><g><path d="M 18.109375 -0.265625 C 18.148438 -0.265625 18.171875 -0.21875 18.171875 -0.125 C 18.171875 -0.0390625 18.148438 0 18.109375 0 C 17.640625 0 17.273438 -0.00390625 17.015625 -0.015625 L 15.46875 -0.046875 L 14.046875 -0.015625 C 13.804688 -0.00390625 13.472656 0 13.046875 0 C 13.015625 0 13 -0.0390625 13 -0.125 C 13 -0.21875 13.015625 -0.265625 13.046875 -0.265625 C 13.546875 -0.265625 13.914062 -0.304688 14.15625 -0.390625 C 14.40625 -0.472656 14.570312 -0.617188 14.65625 -0.828125 C 14.738281 -1.035156 14.765625 -1.363281 14.734375 -1.8125 L 14.34375 -11.953125 L 9.25 -0.15625 C 9.21875 -0.09375 9.160156 -0.0625 9.078125 -0.0625 C 9.003906 -0.0625 8.9375 -0.09375 8.875 -0.15625 L 3.390625 -11.8125 L 3.1875 -2.4375 C 3.175781 -1.644531 3.3125 -1.082031 3.59375 -0.75 C 3.875 -0.425781 4.367188 -0.265625 5.078125 -0.265625 C 5.109375 -0.265625 5.125 -0.21875 5.125 -0.125 C 5.125 -0.0390625 5.109375 0 5.078125 0 C 4.660156 0 4.34375 -0.00390625 4.125 -0.015625 L 2.921875 -0.046875 L 1.765625 -0.015625 C 1.554688 -0.00390625 1.257812 0 0.875 0 C 0.84375 0 0.828125 -0.0390625 0.828125 -0.125 C 0.828125 -0.21875 0.84375 -0.265625 0.875 -0.265625 C 1.5 -0.265625 1.945312 -0.429688 2.21875 -0.765625 C 2.488281 -1.097656 2.632812 -1.65625 2.65625 -2.4375 L 2.859375 -12.78125 C 2.410156 -13.375 1.800781 -13.671875 1.03125 -13.671875 C 1 -13.671875 0.984375 -13.710938 0.984375 -13.796875 C 0.984375 -13.890625 1 -13.9375 1.03125 -13.9375 L 1.84375 -13.90625 C 2 -13.894531 2.207031 -13.890625 2.46875 -13.890625 C 2.738281 -13.890625 2.96875 -13.894531 3.15625 -13.90625 C 3.34375 -13.925781 3.488281 -13.9375 3.59375 -13.9375 C 3.78125 -13.9375 3.9375 -13.863281 4.0625 -13.71875 C 4.195312 -13.582031 4.378906 -13.269531 4.609375 -12.78125 L 9.59375 -2.296875 L 14.453125 -13.375 C 14.609375 -13.75 14.832031 -13.9375 15.125 -13.9375 C 15.195312 -13.9375 15.300781 -13.925781 15.4375 -13.90625 C 15.582031 -13.894531 15.773438 -13.890625 16.015625 -13.890625 L 17.0625 -13.90625 C 17.21875 -13.925781 17.460938 -13.9375 17.796875 -13.9375 C 17.835938 -13.9375 17.859375 -13.890625 17.859375 -13.796875 C 17.859375 -13.710938 17.835938 -13.671875 17.796875 -13.671875 C 17.046875 -13.671875 16.507812 -13.5625 16.1875 -13.34375 C 15.875 -13.125 15.722656 -12.71875 15.734375 -12.125 L 16.1875 -1.8125 C 16.195312 -1.34375 16.25 -1.003906 16.34375 -0.796875 C 16.445312 -0.585938 16.625 -0.445312 16.875 -0.375 C 17.125 -0.300781 17.535156 -0.265625 18.109375 -0.265625 Z M 18.109375 -0.265625 "/></g></g></g><g fill="#000000" fill-opacity="1"><g transform="translate(139.22332, 224.809804)"><g><path d="M 15.234375 -0.265625 C 15.253906 -0.265625 15.265625 -0.21875 15.265625 -0.125 C 15.265625 -0.0390625 15.253906 0 15.234375 0 L 12.359375 0 C 11.984375 0 11.28125 -0.613281 10.25 -1.84375 C 9.226562 -3.082031 8.007812 -4.78125 6.59375 -6.9375 C 6.195312 -6.84375 5.78125 -6.796875 5.34375 -6.796875 C 5.257812 -6.796875 4.925781 -6.820312 4.34375 -6.875 L 4.34375 -1.8125 C 4.34375 -1.34375 4.382812 -1.003906 4.46875 -0.796875 C 4.5625 -0.585938 4.738281 -0.445312 5 -0.375 C 5.257812 -0.300781 5.675781 -0.265625 6.25 -0.265625 C 6.289062 -0.265625 6.3125 -0.21875 6.3125 -0.125 C 6.3125 -0.0390625 6.289062 0 6.25 0 C 5.78125 0 5.414062 -0.00390625 5.15625 -0.015625 L 3.609375 -0.046875 L 2.09375 -0.015625 C 1.820312 -0.00390625 1.441406 0 0.953125 0 C 0.929688 0 0.921875 -0.0390625 0.921875 -0.125 C 0.921875 -0.21875 0.929688 -0.265625 0.953125 -0.265625 C 1.523438 -0.265625 1.941406 -0.300781 2.203125 -0.375 C 2.472656 -0.445312 2.65625 -0.59375 2.75 -0.8125 C 2.851562 -1.03125 2.90625 -1.363281 2.90625 -1.8125 L 2.90625 -12.125 C 2.90625 -12.570312 2.859375 -12.898438 2.765625 -13.109375 C 2.671875 -13.316406 2.492188 -13.460938 2.234375 -13.546875 C 1.972656 -13.628906 1.5625 -13.671875 1 -13.671875 C 0.957031 -13.671875 0.9375 -13.710938 0.9375 -13.796875 C 0.9375 -13.890625 0.957031 -13.9375 1 -13.9375 L 2.09375 -13.90625 C 2.71875 -13.882812 3.222656 -13.875 3.609375 -13.875 C 3.941406 -13.875 4.25 -13.878906 4.53125 -13.890625 C 4.8125 -13.898438 5.046875 -13.914062 5.234375 -13.9375 C 5.785156 -13.976562 6.285156 -14 6.734375 -14 C 7.910156 -14 8.816406 -13.726562 9.453125 -13.1875 C 10.085938 -12.65625 10.40625 -11.945312 10.40625 -11.0625 C 10.40625 -10.257812 10.171875 -9.535156 9.703125 -8.890625 C 9.242188 -8.242188 8.625 -7.734375 7.84375 -7.359375 C 9.09375 -5.554688 10.144531 -4.144531 11 -3.125 C 11.851562 -2.113281 12.609375 -1.382812 13.265625 -0.9375 C 13.929688 -0.488281 14.585938 -0.265625 15.234375 -0.265625 Z M 4.34375 -7.40625 C 4.71875 -7.34375 5.15625 -7.3125 5.65625 -7.3125 C 6.820312 -7.3125 7.648438 -7.5625 8.140625 -8.0625 C 8.640625 -8.570312 8.890625 -9.351562 8.890625 -10.40625 C 8.890625 -11.570312 8.632812 -12.40625 8.125 -12.90625 C 7.613281 -13.414062 6.867188 -13.671875 5.890625 -13.671875 C 5.304688 -13.671875 4.898438 -13.566406 4.671875 -13.359375 C 4.453125 -13.148438 4.34375 -12.722656 4.34375 -12.078125 Z M 4.34375 -7.40625 "/></g></g></g><g fill="#000000" fill-opacity="1"><g transform="translate(157.166762, 224.809804)"><g><path d="M 15.578125 -0.265625 C 15.640625 -0.265625 15.671875 -0.21875 15.671875 -0.125 C 15.671875 -0.0390625 15.640625 0 15.578125 0 C 15.296875 0 14.859375 -0.015625 14.265625 -0.046875 C 13.671875 -0.078125 13.242188 -0.09375 12.984375 -0.09375 C 12.648438 -0.09375 12.234375 -0.078125 11.734375 -0.046875 C 11.253906 -0.015625 10.890625 0 10.640625 0 C 10.578125 0 10.546875 -0.0390625 10.546875 -0.125 C 10.546875 -0.21875 10.578125 -0.265625 10.640625 -0.265625 C 11.179688 -0.265625 11.578125 -0.316406 11.828125 -0.421875 C 12.085938 -0.523438 12.21875 -0.703125 12.21875 -0.953125 C 12.21875 -1.160156 12.117188 -1.484375 11.921875 -1.921875 L 9.9375 -6.125 L 4.640625 -6.125 L 3.234375 -2.828125 C 3.023438 -2.328125 2.921875 -1.921875 2.921875 -1.609375 C 2.921875 -1.148438 3.101562 -0.8125 3.46875 -0.59375 C 3.832031 -0.375 4.378906 -0.265625 5.109375 -0.265625 C 5.179688 -0.265625 5.21875 -0.21875 5.21875 -0.125 C 5.21875 -0.0390625 5.179688 0 5.109375 0 C 4.835938 0 4.453125 -0.015625 3.953125 -0.046875 C 3.378906 -0.078125 2.882812 -0.09375 2.46875 -0.09375 C 2.082031 -0.09375 1.640625 -0.078125 1.140625 -0.046875 C 0.691406 -0.015625 0.316406 0 0.015625 0 C -0.0546875 0 -0.09375 -0.0390625 -0.09375 -0.125 C -0.09375 -0.21875 -0.0546875 -0.265625 0.015625 -0.265625 C 0.429688 -0.265625 0.785156 -0.34375 1.078125 -0.5 C 1.367188 -0.65625 1.644531 -0.929688 1.90625 -1.328125 C 2.164062 -1.722656 2.453125 -2.289062 2.765625 -3.03125 L 7.46875 -14.140625 C 7.5 -14.179688 7.550781 -14.203125 7.625 -14.203125 C 7.695312 -14.203125 7.742188 -14.179688 7.765625 -14.140625 L 13.015625 -3.046875 C 13.523438 -1.953125 13.957031 -1.210938 14.3125 -0.828125 C 14.664062 -0.453125 15.085938 -0.265625 15.578125 -0.265625 Z M 4.8125 -6.578125 L 9.75 -6.578125 L 7.140625 -12.078125 Z M 4.8125 -6.578125 "/></g></g></g><g fill="#000000" fill-opacity="1"><g transform="translate(175.756589, 224.809804)"><g><path d="M 15.703125 -13.9375 C 15.742188 -13.9375 15.765625 -13.890625 15.765625 -13.796875 C 15.765625 -13.710938 15.742188 -13.671875 15.703125 -13.671875 C 15.078125 -13.671875 14.617188 -13.5 14.328125 -13.15625 C 14.046875 -12.8125 13.90625 -12.253906 13.90625 -11.484375 L 13.90625 0.265625 C 13.90625 0.296875 13.867188 0.316406 13.796875 0.328125 C 13.722656 0.347656 13.671875 0.34375 13.640625 0.3125 L 3.390625 -12.109375 L 3.1875 -12.328125 L 3.1875 -2.4375 C 3.1875 -1.65625 3.320312 -1.097656 3.59375 -0.765625 C 3.875 -0.429688 4.316406 -0.265625 4.921875 -0.265625 C 4.972656 -0.265625 5 -0.21875 5 -0.125 C 5 -0.0390625 4.972656 0 4.921875 0 C 4.554688 0 4.273438 -0.00390625 4.078125 -0.015625 L 2.96875 -0.046875 L 1.828125 -0.015625 C 1.617188 -0.00390625 1.316406 0 0.921875 0 C 0.890625 0 0.875 -0.0390625 0.875 -0.125 C 0.875 -0.21875 0.890625 -0.265625 0.921875 -0.265625 C 1.554688 -0.265625 2.003906 -0.429688 2.265625 -0.765625 C 2.535156 -1.097656 2.671875 -1.65625 2.671875 -2.4375 L 2.671875 -12.859375 C 2.097656 -13.398438 1.515625 -13.671875 0.921875 -13.671875 C 0.867188 -13.671875 0.84375 -13.710938 0.84375 -13.796875 C 0.84375 -13.890625 0.867188 -13.9375 0.921875 -13.9375 L 1.734375 -13.90625 C 1.910156 -13.894531 2.15625 -13.890625 2.46875 -13.890625 C 2.800781 -13.890625 3.070312 -13.894531 3.28125 -13.90625 C 3.488281 -13.925781 3.648438 -13.9375 3.765625 -13.9375 C 3.890625 -13.9375 3.976562 -13.910156 4.03125 -13.859375 C 4.082031 -13.804688 4.164062 -13.691406 4.28125 -13.515625 C 4.457031 -13.242188 4.632812 -13 4.8125 -12.78125 L 13.40625 -2.234375 L 13.40625 -11.484375 C 13.40625 -12.253906 13.273438 -12.8125 13.015625 -13.15625 C 12.753906 -13.5 12.316406 -13.671875 11.703125 -13.671875 C 11.671875 -13.671875 11.65625 -13.710938 11.65625 -13.796875 C 11.65625 -13.890625 11.671875 -13.9375 11.703125 -13.9375 L 12.578125 -13.90625 C 13.023438 -13.882812 13.390625 -13.875 13.671875 -13.875 C 13.929688 -13.875 14.300781 -13.882812 14.78125 -13.90625 Z M 15.703125 -13.9375 "/></g></g></g><g fill="#000000" fill-opacity="1"><g transform="translate(194.903641, 224.809804)"><g/></g></g><g fill="#000000" fill-opacity="1"><g transform="translate(203.062225, 224.809804)"><g><path d="M 15.546875 -0.265625 C 15.597656 -0.253906 15.617188 -0.207031 15.609375 -0.125 C 15.609375 -0.0390625 15.585938 0 15.546875 0 L 13.140625 0 C 12.460938 0 11.441406 -0.523438 10.078125 -1.578125 C 8.867188 -0.347656 7.367188 0.265625 5.578125 0.265625 C 4.648438 0.265625 3.878906 0.109375 3.265625 -0.203125 C 2.648438 -0.515625 2.1875 -0.921875 1.875 -1.421875 C 1.570312 -1.929688 1.421875 -2.472656 1.421875 -3.046875 C 1.421875 -3.898438 1.6875 -4.640625 2.21875 -5.265625 C 2.75 -5.898438 3.507812 -6.582031 4.5 -7.3125 C 4.238281 -7.71875 4.023438 -8.085938 3.859375 -8.421875 C 3.421875 -9.378906 3.203125 -10.191406 3.203125 -10.859375 C 3.203125 -11.492188 3.359375 -12.082031 3.671875 -12.625 C 3.984375 -13.164062 4.421875 -13.597656 4.984375 -13.921875 C 5.554688 -14.242188 6.195312 -14.40625 6.90625 -14.40625 C 7.625 -14.40625 8.238281 -14.234375 8.75 -13.890625 C 9.257812 -13.546875 9.515625 -12.984375 9.515625 -12.203125 C 9.515625 -11.617188 9.367188 -11.09375 9.078125 -10.625 C 8.796875 -10.164062 8.441406 -9.757812 8.015625 -9.40625 C 7.585938 -9.0625 7.019531 -8.65625 6.3125 -8.1875 C 6.207031 -8.125 6.050781 -8.019531 5.84375 -7.875 C 6.863281 -6.21875 8.445312 -4.5625 10.59375 -2.90625 C 11.113281 -3.8125 11.375 -4.8125 11.375 -5.90625 C 11.375 -6.445312 11.265625 -6.847656 11.046875 -7.109375 C 10.828125 -7.378906 10.40625 -7.515625 9.78125 -7.515625 C 9.738281 -7.515625 9.710938 -7.554688 9.703125 -7.640625 C 9.703125 -7.734375 9.726562 -7.78125 9.78125 -7.78125 L 14.453125 -7.796875 C 14.503906 -7.796875 14.53125 -7.75 14.53125 -7.65625 C 14.53125 -7.570312 14.503906 -7.53125 14.453125 -7.53125 C 13.941406 -7.53125 13.5625 -7.484375 13.3125 -7.390625 C 13.0625 -7.296875 12.882812 -7.164062 12.78125 -7 C 12.675781 -6.832031 12.570312 -6.570312 12.46875 -6.21875 C 12.03125 -4.75 11.515625 -3.5625 10.921875 -2.65625 C 11.796875 -2.007812 12.640625 -1.476562 13.453125 -1.0625 C 14.273438 -0.65625 14.972656 -0.390625 15.546875 -0.265625 Z M 4.5 -11.8125 C 4.5 -10.65625 4.882812 -9.429688 5.65625 -8.140625 C 6.476562 -8.742188 7.109375 -9.332031 7.546875 -9.90625 C 7.984375 -10.476562 8.203125 -11.125 8.203125 -11.84375 C 8.203125 -12.5 8.023438 -13.007812 7.671875 -13.375 C 7.328125 -13.75 6.859375 -13.9375 6.265625 -13.9375 C 5.085938 -13.9375 4.5 -13.226562 4.5 -11.8125 Z M 6.578125 -0.40625 C 7.828125 -0.40625 8.894531 -0.875 9.78125 -1.8125 L 9.390625 -2.140625 C 8.492188 -2.835938 7.632812 -3.613281 6.8125 -4.46875 C 5.988281 -5.320312 5.28125 -6.175781 4.6875 -7.03125 C 4.101562 -6.5625 3.648438 -6.070312 3.328125 -5.5625 C 3.015625 -5.050781 2.859375 -4.472656 2.859375 -3.828125 C 2.859375 -3.210938 3.015625 -2.640625 3.328125 -2.109375 C 3.648438 -1.578125 4.097656 -1.160156 4.671875 -0.859375 C 5.242188 -0.554688 5.878906 -0.40625 6.578125 -0.40625 Z M 6.578125 -0.40625 "/></g></g></g><g fill="#000000" fill-opacity="1"><g transform="translate(221.54061, 224.809804)"><g/></g></g><g fill="#000000" fill-opacity="1"><g transform="translate(229.699205, 224.809804)"><g><path d="M 15.703125 -13.9375 C 15.742188 -13.9375 15.765625 -13.890625 15.765625 -13.796875 C 15.765625 -13.710938 15.742188 -13.671875 15.703125 -13.671875 C 15.078125 -13.671875 14.617188 -13.5 14.328125 -13.15625 C 14.046875 -12.8125 13.90625 -12.253906 13.90625 -11.484375 L 13.90625 0.265625 C 13.90625 0.296875 13.867188 0.316406 13.796875 0.328125 C 13.722656 0.347656 13.671875 0.34375 13.640625 0.3125 L 3.390625 -12.109375 L 3.1875 -12.328125 L 3.1875 -2.4375 C 3.1875 -1.65625 3.320312 -1.097656 3.59375 -0.765625 C 3.875 -0.429688 4.316406 -0.265625 4.921875 -0.265625 C 4.972656 -0.265625 5 -0.21875 5 -0.125 C 5 -0.0390625 4.972656 0 4.921875 0 C 4.554688 0 4.273438 -0.00390625 4.078125 -0.015625 L 2.96875 -0.046875 L 1.828125 -0.015625 C 1.617188 -0.00390625 1.316406 0 0.921875 0 C 0.890625 0 0.875 -0.0390625 0.875 -0.125 C 0.875 -0.21875 0.890625 -0.265625 0.921875 -0.265625 C 1.554688 -0.265625 2.003906 -0.429688 2.265625 -0.765625 C 2.535156 -1.097656 2.671875 -1.65625 2.671875 -2.4375 L 2.671875 -12.859375 C 2.097656 -13.398438 1.515625 -13.671875 0.921875 -13.671875 C 0.867188 -13.671875 0.84375 -13.710938 0.84375 -13.796875 C 0.84375 -13.890625 0.867188 -13.9375 0.921875 -13.9375 L 1.734375 -13.90625 C 1.910156 -13.894531 2.15625 -13.890625 2.46875 -13.890625 C 2.800781 -13.890625 3.070312 -13.894531 3.28125 -13.90625 C 3.488281 -13.925781 3.648438 -13.9375 3.765625 -13.9375 C 3.890625 -13.9375 3.976562 -13.910156 4.03125 -13.859375 C 4.082031 -13.804688 4.164062 -13.691406 4.28125 -13.515625 C 4.457031 -13.242188 4.632812 -13 4.8125 -12.78125 L 13.40625 -2.234375 L 13.40625 -11.484375 C 13.40625 -12.253906 13.273438 -12.8125 13.015625 -13.15625 C 12.753906 -13.5 12.316406 -13.671875 11.703125 -13.671875 C 11.671875 -13.671875 11.65625 -13.710938 11.65625 -13.796875 C 11.65625 -13.890625 11.671875 -13.9375 11.703125 -13.9375 L 12.578125 -13.90625 C 13.023438 -13.882812 13.390625 -13.875 13.671875 -13.875 C 13.929688 -13.875 14.300781 -13.882812 14.78125 -13.90625 Z M 15.703125 -13.9375 "/></g></g></g><g fill="#000000" fill-opacity="1"><g transform="translate(248.846245, 224.809804)"><g><path d="M 4.4375 -1.8125 C 4.4375 -1.363281 4.476562 -1.03125 4.5625 -0.8125 C 4.65625 -0.59375 4.832031 -0.445312 5.09375 -0.375 C 5.351562 -0.300781 5.765625 -0.265625 6.328125 -0.265625 C 6.378906 -0.265625 6.40625 -0.21875 6.40625 -0.125 C 6.40625 -0.0390625 6.378906 0 6.328125 0 C 5.878906 0 5.523438 -0.00390625 5.265625 -0.015625 L 3.671875 -0.046875 L 2.140625 -0.015625 C 1.867188 -0.00390625 1.503906 0 1.046875 0 C 1.003906 0 0.984375 -0.0390625 0.984375 -0.125 C 0.984375 -0.21875 1.003906 -0.265625 1.046875 -0.265625 C 1.609375 -0.265625 2.019531 -0.300781 2.28125 -0.375 C 2.539062 -0.445312 2.71875 -0.59375 2.8125 -0.8125 C 2.914062 -1.03125 2.96875 -1.363281 2.96875 -1.8125 L 2.96875 -12.125 C 2.96875 -12.570312 2.914062 -12.898438 2.8125 -13.109375 C 2.71875 -13.316406 2.539062 -13.460938 2.28125 -13.546875 C 2.019531 -13.628906 1.609375 -13.671875 1.046875 -13.671875 C 1.003906 -13.671875 0.984375 -13.710938 0.984375 -13.796875 C 0.984375 -13.890625 1.003906 -13.9375 1.046875 -13.9375 L 2.140625 -13.90625 C 2.765625 -13.882812 3.273438 -13.875 3.671875 -13.875 C 4.117188 -13.875 4.65625 -13.882812 5.28125 -13.90625 L 6.328125 -13.9375 C 6.378906 -13.9375 6.40625 -13.890625 6.40625 -13.796875 C 6.40625 -13.710938 6.378906 -13.671875 6.328125 -13.671875 C 5.773438 -13.671875 5.367188 -13.625 5.109375 -13.53125 C 4.859375 -13.445312 4.679688 -13.296875 4.578125 -13.078125 C 4.484375 -12.859375 4.4375 -12.523438 4.4375 -12.078125 Z M 4.4375 -1.8125 "/></g></g></g><g fill="#000000" fill-opacity="1"><g transform="translate(259.189163, 224.809804)"><g><path d="M 14.921875 -13.9375 C 14.960938 -13.9375 14.984375 -13.890625 14.984375 -13.796875 C 14.984375 -13.710938 14.960938 -13.671875 14.921875 -13.671875 C 14.410156 -13.671875 13.96875 -13.535156 13.59375 -13.265625 C 13.226562 -12.992188 12.921875 -12.539062 12.671875 -11.90625 L 7.921875 -0.015625 C 7.898438 0.0351562 7.816406 0.0625 7.671875 0.0625 C 7.546875 0.0625 7.460938 0.0351562 7.421875 -0.015625 L 1.875 -12.078125 C 1.625 -12.660156 1.351562 -13.070312 1.0625 -13.3125 C 0.78125 -13.550781 0.421875 -13.671875 -0.015625 -13.671875 C -0.0664062 -13.671875 -0.09375 -13.710938 -0.09375 -13.796875 C -0.09375 -13.890625 -0.0664062 -13.9375 -0.015625 -13.9375 L 0.828125 -13.90625 C 1.242188 -13.882812 1.578125 -13.875 1.828125 -13.875 C 2.421875 -13.875 3.0625 -13.882812 3.75 -13.90625 L 4.65625 -13.9375 C 4.707031 -13.9375 4.734375 -13.890625 4.734375 -13.796875 C 4.734375 -13.710938 4.707031 -13.671875 4.65625 -13.671875 C 3.738281 -13.671875 3.28125 -13.410156 3.28125 -12.890625 C 3.28125 -12.710938 3.347656 -12.472656 3.484375 -12.171875 L 8.140625 -1.96875 L 12.15625 -12.015625 C 12.269531 -12.328125 12.328125 -12.570312 12.328125 -12.75 C 12.328125 -13.0625 12.1875 -13.289062 11.90625 -13.4375 C 11.625 -13.59375 11.1875 -13.671875 10.59375 -13.671875 C 10.550781 -13.671875 10.53125 -13.710938 10.53125 -13.796875 C 10.53125 -13.890625 10.550781 -13.9375 10.59375 -13.9375 L 11.546875 -13.90625 C 12.054688 -13.882812 12.519531 -13.875 12.9375 -13.875 C 13.25 -13.875 13.597656 -13.882812 13.984375 -13.90625 Z M 14.921875 -13.9375 "/></g></g></g><g fill="#000000" fill-opacity="1"><g transform="translate(276.976599, 224.809804)"><g><path d="M 10.59375 -3.328125 C 10.59375 -3.347656 10.625 -3.359375 10.6875 -3.359375 C 10.726562 -3.359375 10.765625 -3.351562 10.796875 -3.34375 C 10.835938 -3.332031 10.859375 -3.3125 10.859375 -3.28125 C 10.722656 -2.34375 10.65625 -1.359375 10.65625 -0.328125 C 10.65625 -0.210938 10.628906 -0.128906 10.578125 -0.078125 C 10.523438 -0.0234375 10.429688 0 10.296875 0 L 0.953125 0 C 0.929688 0 0.921875 -0.0390625 0.921875 -0.125 C 0.921875 -0.21875 0.929688 -0.265625 0.953125 -0.265625 C 1.523438 -0.265625 1.941406 -0.300781 2.203125 -0.375 C 2.460938 -0.445312 2.640625 -0.59375 2.734375 -0.8125 C 2.828125 -1.03125 2.875 -1.363281 2.875 -1.8125 L 2.875 -12.125 C 2.875 -12.570312 2.828125 -12.898438 2.734375 -13.109375 C 2.640625 -13.316406 2.460938 -13.460938 2.203125 -13.546875 C 1.941406 -13.628906 1.523438 -13.671875 0.953125 -13.671875 C 0.929688 -13.671875 0.921875 -13.710938 0.921875 -13.796875 C 0.921875 -13.890625 0.929688 -13.9375 0.953125 -13.9375 L 9.921875 -13.9375 C 10.054688 -13.9375 10.125 -13.867188 10.125 -13.734375 L 10.171875 -11 C 10.171875 -10.945312 10.128906 -10.914062 10.046875 -10.90625 C 9.972656 -10.90625 9.929688 -10.925781 9.921875 -10.96875 C 9.878906 -11.757812 9.640625 -12.375 9.203125 -12.8125 C 8.773438 -13.25 8.203125 -13.46875 7.484375 -13.46875 L 6.125 -13.46875 C 5.601562 -13.46875 5.21875 -13.425781 4.96875 -13.34375 C 4.726562 -13.257812 4.5625 -13.117188 4.46875 -12.921875 C 4.375 -12.722656 4.328125 -12.421875 4.328125 -12.015625 L 4.328125 -7.484375 L 7.046875 -7.484375 C 7.753906 -7.484375 8.257812 -7.601562 8.5625 -7.84375 C 8.875 -8.082031 9.03125 -8.484375 9.03125 -9.046875 C 9.03125 -9.078125 9.070312 -9.09375 9.15625 -9.09375 C 9.25 -9.09375 9.296875 -9.078125 9.296875 -9.046875 L 9.28125 -7.25 C 9.28125 -6.8125 9.285156 -6.484375 9.296875 -6.265625 L 9.3125 -5.1875 C 9.3125 -5.164062 9.265625 -5.15625 9.171875 -5.15625 C 9.085938 -5.15625 9.046875 -5.164062 9.046875 -5.1875 C 9.046875 -5.84375 8.882812 -6.3125 8.5625 -6.59375 C 8.25 -6.882812 7.722656 -7.03125 6.984375 -7.03125 L 4.328125 -7.03125 L 4.328125 -1.890625 C 4.328125 -1.472656 4.367188 -1.164062 4.453125 -0.96875 C 4.546875 -0.78125 4.710938 -0.648438 4.953125 -0.578125 C 5.191406 -0.503906 5.5625 -0.46875 6.0625 -0.46875 L 7.84375 -0.46875 C 8.5625 -0.46875 9.15625 -0.71875 9.625 -1.21875 C 10.101562 -1.726562 10.425781 -2.429688 10.59375 -3.328125 Z M 10.59375 -3.328125 "/></g></g></g><g fill="#000000" fill-opacity="1"><g transform="translate(291.888753, 224.809804)"><g><path d="M 6.75 0.09375 C 6.320312 0.09375 5.828125 0.0664062 5.265625 0.015625 C 5.054688 0.00390625 4.789062 -0.00390625 4.46875 -0.015625 C 4.144531 -0.0351562 3.789062 -0.046875 3.40625 -0.046875 L 1.890625 -0.015625 C 1.628906 -0.00390625 1.257812 0 0.78125 0 C 0.75 0 0.734375 -0.0390625 0.734375 -0.125 C 0.734375 -0.21875 0.75 -0.265625 0.78125 -0.265625 C 1.34375 -0.265625 1.753906 -0.300781 2.015625 -0.375 C 2.273438 -0.445312 2.453125 -0.59375 2.546875 -0.8125 C 2.648438 -1.03125 2.703125 -1.363281 2.703125 -1.8125 L 2.703125 -12.125 C 2.703125 -12.570312 2.65625 -12.898438 2.5625 -13.109375 C 2.476562 -13.316406 2.304688 -13.460938 2.046875 -13.546875 C 1.785156 -13.628906 1.367188 -13.671875 0.796875 -13.671875 C 0.773438 -13.671875 0.765625 -13.710938 0.765625 -13.796875 C 0.765625 -13.890625 0.773438 -13.9375 0.796875 -13.9375 L 1.921875 -13.90625 C 2.546875 -13.882812 3.039062 -13.875 3.40625 -13.875 C 3.976562 -13.875 4.535156 -13.894531 5.078125 -13.9375 C 5.734375 -13.96875 6.1875 -13.984375 6.4375 -13.984375 C 7.988281 -13.984375 9.363281 -13.6875 10.5625 -13.09375 C 11.757812 -12.5 12.679688 -11.6875 13.328125 -10.65625 C 13.984375 -9.632812 14.3125 -8.484375 14.3125 -7.203125 C 14.3125 -5.765625 13.972656 -4.488281 13.296875 -3.375 C 12.617188 -2.269531 11.703125 -1.414062 10.546875 -0.8125 C 9.390625 -0.207031 8.125 0.09375 6.75 0.09375 Z M 6.53125 -0.25 C 7.71875 -0.25 8.769531 -0.492188 9.6875 -0.984375 C 10.613281 -1.484375 11.332031 -2.21875 11.84375 -3.1875 C 12.363281 -4.164062 12.625 -5.34375 12.625 -6.71875 C 12.625 -8.007812 12.378906 -9.179688 11.890625 -10.234375 C 11.398438 -11.285156 10.695312 -12.113281 9.78125 -12.71875 C 8.875 -13.332031 7.828125 -13.640625 6.640625 -13.640625 C 6.003906 -13.640625 5.507812 -13.601562 5.15625 -13.53125 C 4.8125 -13.457031 4.554688 -13.304688 4.390625 -13.078125 C 4.222656 -12.859375 4.140625 -12.523438 4.140625 -12.078125 L 4.140625 -2.046875 C 4.140625 -1.597656 4.203125 -1.25 4.328125 -1 C 4.460938 -0.75 4.703125 -0.5625 5.046875 -0.4375 C 5.398438 -0.3125 5.894531 -0.25 6.53125 -0.25 Z M 6.53125 -0.25 "/></g></g></g><g fill="#000000" fill-opacity="1"><g transform="translate(310.233403, 224.809804)"><g><path d="M 16.09375 -0.265625 C 16.144531 -0.265625 16.171875 -0.21875 16.171875 -0.125 C 16.171875 -0.0390625 16.144531 0 16.09375 0 C 15.632812 0 15.269531 -0.00390625 15 -0.015625 L 13.46875 -0.046875 L 11.8125 -0.015625 C 11.5625 -0.00390625 11.210938 0 10.765625 0 C 10.722656 0 10.703125 -0.0390625 10.703125 -0.125 C 10.703125 -0.21875 10.722656 -0.265625 10.765625 -0.265625 C 11.347656 -0.265625 11.769531 -0.300781 12.03125 -0.375 C 12.300781 -0.445312 12.484375 -0.59375 12.578125 -0.8125 C 12.679688 -1.03125 12.734375 -1.363281 12.734375 -1.8125 L 12.734375 -7.03125 L 4.171875 -7.03125 L 4.171875 -1.8125 C 4.171875 -1.363281 4.21875 -1.03125 4.3125 -0.8125 C 4.40625 -0.59375 4.585938 -0.445312 4.859375 -0.375 C 5.128906 -0.300781 5.550781 -0.265625 6.125 -0.265625 C 6.15625 -0.265625 6.171875 -0.21875 6.171875 -0.125 C 6.171875 -0.0390625 6.15625 0 6.125 0 C 5.664062 0 5.304688 -0.00390625 5.046875 -0.015625 L 3.4375 -0.046875 L 1.890625 -0.015625 C 1.628906 -0.00390625 1.257812 0 0.78125 0 C 0.75 0 0.734375 -0.0390625 0.734375 -0.125 C 0.734375 -0.21875 0.75 -0.265625 0.78125 -0.265625 C 1.34375 -0.265625 1.757812 -0.300781 2.03125 -0.375 C 2.3125 -0.445312 2.5 -0.59375 2.59375 -0.8125 C 2.695312 -1.03125 2.75 -1.363281 2.75 -1.8125 L 2.75 -12.125 C 2.75 -12.570312 2.695312 -12.898438 2.59375 -13.109375 C 2.5 -13.316406 2.316406 -13.460938 2.046875 -13.546875 C 1.785156 -13.628906 1.367188 -13.671875 0.796875 -13.671875 C 0.773438 -13.671875 0.765625 -13.710938 0.765625 -13.796875 C 0.765625 -13.890625 0.773438 -13.9375 0.796875 -13.9375 L 1.9375 -13.90625 C 2.5625 -13.882812 3.0625 -13.875 3.4375 -13.875 C 3.863281 -13.875 4.40625 -13.882812 5.0625 -13.90625 L 6.125 -13.9375 C 6.15625 -13.9375 6.171875 -13.890625 6.171875 -13.796875 C 6.171875 -13.710938 6.15625 -13.671875 6.125 -13.671875 C 5.5625 -13.671875 5.140625 -13.625 4.859375 -13.53125 C 4.585938 -13.445312 4.40625 -13.296875 4.3125 -13.078125 C 4.21875 -12.859375 4.171875 -12.523438 4.171875 -12.078125 L 4.171875 -7.484375 L 12.734375 -7.484375 L 12.734375 -12.078125 C 12.734375 -12.523438 12.679688 -12.859375 12.578125 -13.078125 C 12.484375 -13.296875 12.300781 -13.445312 12.03125 -13.53125 C 11.769531 -13.625 11.347656 -13.671875 10.765625 -13.671875 C 10.722656 -13.671875 10.703125 -13.710938 10.703125 -13.796875 C 10.703125 -13.890625 10.722656 -13.9375 10.765625 -13.9375 L 11.8125 -13.90625 C 12.46875 -13.882812 13.019531 -13.875 13.46875 -13.875 C 13.863281 -13.875 14.375 -13.882812 15 -13.90625 L 16.09375 -13.9375 C 16.144531 -13.9375 16.171875 -13.890625 16.171875 -13.796875 C 16.171875 -13.710938 16.144531 -13.671875 16.09375 -13.671875 C 15.53125 -13.671875 15.113281 -13.628906 14.84375 -13.546875 C 14.582031 -13.460938 14.398438 -13.316406 14.296875 -13.109375 C 14.203125 -12.898438 14.15625 -12.570312 14.15625 -12.125 L 14.15625 -1.8125 C 14.15625 -1.363281 14.203125 -1.03125 14.296875 -0.8125 C 14.398438 -0.59375 14.582031 -0.445312 14.84375 -0.375 C 15.113281 -0.300781 15.53125 -0.265625 16.09375 -0.265625 Z M 16.09375 -0.265625 "/></g></g></g><g fill="#000000" fill-opacity="1"><g transform="translate(330.093707, 224.809804)"><g><path d="M 15.578125 -0.265625 C 15.640625 -0.265625 15.671875 -0.21875 15.671875 -0.125 C 15.671875 -0.0390625 15.640625 0 15.578125 0 C 15.296875 0 14.859375 -0.015625 14.265625 -0.046875 C 13.671875 -0.078125 13.242188 -0.09375 12.984375 -0.09375 C 12.648438 -0.09375 12.234375 -0.078125 11.734375 -0.046875 C 11.253906 -0.015625 10.890625 0 10.640625 0 C 10.578125 0 10.546875 -0.0390625 10.546875 -0.125 C 10.546875 -0.21875 10.578125 -0.265625 10.640625 -0.265625 C 11.179688 -0.265625 11.578125 -0.316406 11.828125 -0.421875 C 12.085938 -0.523438 12.21875 -0.703125 12.21875 -0.953125 C 12.21875 -1.160156 12.117188 -1.484375 11.921875 -1.921875 L 9.9375 -6.125 L 4.640625 -6.125 L 3.234375 -2.828125 C 3.023438 -2.328125 2.921875 -1.921875 2.921875 -1.609375 C 2.921875 -1.148438 3.101562 -0.8125 3.46875 -0.59375 C 3.832031 -0.375 4.378906 -0.265625 5.109375 -0.265625 C 5.179688 -0.265625 5.21875 -0.21875 5.21875 -0.125 C 5.21875 -0.0390625 5.179688 0 5.109375 0 C 4.835938 0 4.453125 -0.015625 3.953125 -0.046875 C 3.378906 -0.078125 2.882812 -0.09375 2.46875 -0.09375 C 2.082031 -0.09375 1.640625 -0.078125 1.140625 -0.046875 C 0.691406 -0.015625 0.316406 0 0.015625 0 C -0.0546875 0 -0.09375 -0.0390625 -0.09375 -0.125 C -0.09375 -0.21875 -0.0546875 -0.265625 0.015625 -0.265625 C 0.429688 -0.265625 0.785156 -0.34375 1.078125 -0.5 C 1.367188 -0.65625 1.644531 -0.929688 1.90625 -1.328125 C 2.164062 -1.722656 2.453125 -2.289062 2.765625 -3.03125 L 7.46875 -14.140625 C 7.5 -14.179688 7.550781 -14.203125 7.625 -14.203125 C 7.695312 -14.203125 7.742188 -14.179688 7.765625 -14.140625 L 13.015625 -3.046875 C 13.523438 -1.953125 13.957031 -1.210938 14.3125 -0.828125 C 14.664062 -0.453125 15.085938 -0.265625 15.578125 -0.265625 Z M 4.8125 -6.578125 L 9.75 -6.578125 L 7.140625 -12.078125 Z M 4.8125 -6.578125 "/></g></g></g><g fill="#000000" fill-opacity="1"><g transform="translate(158.356521, 248.345038)"><g><path d="M 2.8125 0.15625 C 2.351562 0.15625 1.941406 0.0507812 1.578125 -0.15625 C 1.210938 -0.375 0.925781 -0.664062 0.71875 -1.03125 C 0.507812 -1.40625 0.40625 -1.828125 0.40625 -2.296875 C 0.40625 -2.765625 0.507812 -3.175781 0.71875 -3.53125 C 0.925781 -3.894531 1.210938 -4.175781 1.578125 -4.375 C 1.953125 -4.582031 2.367188 -4.6875 2.828125 -4.6875 C 3.285156 -4.6875 3.691406 -4.582031 4.046875 -4.375 C 4.410156 -4.164062 4.691406 -3.875 4.890625 -3.5 C 5.085938 -3.132812 5.1875 -2.722656 5.1875 -2.265625 C 5.1875 -1.804688 5.082031 -1.390625 4.875 -1.015625 C 4.675781 -0.648438 4.394531 -0.363281 4.03125 -0.15625 C 3.675781 0.0507812 3.269531 0.15625 2.8125 0.15625 Z M 2.953125 -0.015625 C 3.421875 -0.015625 3.769531 -0.203125 4 -0.578125 C 4.238281 -0.960938 4.359375 -1.476562 4.359375 -2.125 C 4.359375 -2.90625 4.203125 -3.5 3.890625 -3.90625 C 3.578125 -4.3125 3.179688 -4.515625 2.703125 -4.515625 C 2.234375 -4.515625 1.867188 -4.316406 1.609375 -3.921875 C 1.347656 -3.535156 1.21875 -3.023438 1.21875 -2.390625 C 1.21875 -1.691406 1.375 -1.117188 1.6875 -0.671875 C 2 -0.234375 2.421875 -0.015625 2.953125 -0.015625 Z M 2.953125 -0.015625 "/></g></g></g><g fill="#000000" fill-opacity="1"><g transform="translate(165.495358, 248.345038)"><g><path d="M 3.5 -4.03125 C 3.882812 -3.820312 4.203125 -3.628906 4.453125 -3.453125 C 4.703125 -3.273438 4.90625 -3.054688 5.0625 -2.796875 C 5.226562 -2.546875 5.3125 -2.25 5.3125 -1.90625 C 5.3125 -1.519531 5.195312 -1.171875 4.96875 -0.859375 C 4.75 -0.546875 4.453125 -0.296875 4.078125 -0.109375 C 3.703125 0.0664062 3.289062 0.15625 2.84375 0.15625 C 2.382812 0.15625 1.984375 0.0664062 1.640625 -0.109375 C 1.296875 -0.285156 1.023438 -0.519531 0.828125 -0.8125 C 0.640625 -1.101562 0.546875 -1.421875 0.546875 -1.765625 C 0.546875 -2.222656 0.703125 -2.65625 1.015625 -3.0625 C 1.328125 -3.46875 1.707031 -3.789062 2.15625 -4.03125 C 1.851562 -4.21875 1.617188 -4.410156 1.453125 -4.609375 C 1.285156 -4.816406 1.203125 -5.054688 1.203125 -5.328125 C 1.203125 -5.628906 1.296875 -5.882812 1.484375 -6.09375 C 1.671875 -6.3125 1.90625 -6.472656 2.1875 -6.578125 C 2.46875 -6.679688 2.753906 -6.734375 3.046875 -6.734375 C 3.359375 -6.734375 3.628906 -6.671875 3.859375 -6.546875 C 4.097656 -6.429688 4.28125 -6.28125 4.40625 -6.09375 C 4.539062 -5.90625 4.609375 -5.707031 4.609375 -5.5 C 4.609375 -5.25 4.507812 -4.992188 4.3125 -4.734375 C 4.125 -4.484375 3.851562 -4.25 3.5 -4.03125 Z M 2.796875 -6.546875 C 2.515625 -6.546875 2.285156 -6.46875 2.109375 -6.3125 C 1.941406 -6.15625 1.859375 -5.941406 1.859375 -5.671875 C 1.859375 -5.347656 1.984375 -5.070312 2.234375 -4.84375 C 2.484375 -4.625 2.863281 -4.378906 3.375 -4.109375 C 3.5625 -4.304688 3.703125 -4.5 3.796875 -4.6875 C 3.890625 -4.875 3.9375 -5.082031 3.9375 -5.3125 C 3.9375 -5.6875 3.828125 -5.984375 3.609375 -6.203125 C 3.398438 -6.429688 3.128906 -6.546875 2.796875 -6.546875 Z M 3.171875 -0.0625 C 3.597656 -0.0625 3.945312 -0.191406 4.21875 -0.453125 C 4.5 -0.722656 4.640625 -1.082031 4.640625 -1.53125 C 4.640625 -1.882812 4.550781 -2.191406 4.375 -2.453125 C 4.207031 -2.710938 4 -2.925781 3.75 -3.09375 C 3.507812 -3.257812 3.179688 -3.453125 2.765625 -3.671875 L 2.328125 -3.921875 C 2.003906 -3.710938 1.753906 -3.445312 1.578125 -3.125 C 1.398438 -2.8125 1.3125 -2.457031 1.3125 -2.0625 C 1.3125 -1.707031 1.390625 -1.378906 1.546875 -1.078125 C 1.703125 -0.773438 1.921875 -0.53125 2.203125 -0.34375 C 2.484375 -0.15625 2.804688 -0.0625 3.171875 -0.0625 Z M 3.171875 -0.0625 "/></g></g></g><g fill="#000000" fill-opacity="1"><g transform="translate(172.77482, 248.345038)"><g><path d="M 1.15625 0.125 C 1 0.125 0.875 0.078125 0.78125 -0.015625 C 0.6875 -0.109375 0.640625 -0.234375 0.640625 -0.390625 C 0.640625 -0.535156 0.6875 -0.648438 0.78125 -0.734375 C 0.875 -0.828125 1 -0.875 1.15625 -0.875 C 1.320312 -0.875 1.445312 -0.828125 1.53125 -0.734375 C 1.625 -0.648438 1.671875 -0.535156 1.671875 -0.390625 C 1.671875 -0.234375 1.625 -0.109375 1.53125 -0.015625 C 1.445312 0.078125 1.320312 0.125 1.15625 0.125 Z M 1.15625 0.125 "/></g></g></g><g fill="#000000" fill-opacity="1"><g transform="translate(176.632407, 248.345038)"><g><path d="M 0.4375 -0.171875 C 1.125 -0.734375 1.65625 -1.191406 2.03125 -1.546875 C 2.40625 -1.910156 2.675781 -2.234375 2.84375 -2.515625 C 3.007812 -2.796875 3.09375 -3.078125 3.09375 -3.359375 C 3.09375 -3.671875 2.992188 -3.925781 2.796875 -4.125 C 2.609375 -4.320312 2.359375 -4.421875 2.046875 -4.421875 C 1.429688 -4.421875 0.988281 -3.9375 0.71875 -2.96875 C 0.71875 -2.957031 0.703125 -2.953125 0.671875 -2.953125 C 0.597656 -2.953125 0.566406 -2.96875 0.578125 -3 L 1.03125 -4.78125 C 1.03125 -4.800781 1.046875 -4.8125 1.078125 -4.8125 C 1.097656 -4.8125 1.117188 -4.804688 1.140625 -4.796875 C 1.160156 -4.785156 1.164062 -4.773438 1.15625 -4.765625 C 1.15625 -4.734375 1.15625 -4.691406 1.15625 -4.640625 C 1.15625 -4.515625 1.210938 -4.453125 1.328125 -4.453125 C 1.398438 -4.453125 1.515625 -4.476562 1.671875 -4.53125 C 1.992188 -4.632812 2.28125 -4.6875 2.53125 -4.6875 C 2.9375 -4.6875 3.253906 -4.578125 3.484375 -4.359375 C 3.710938 -4.140625 3.828125 -3.859375 3.828125 -3.515625 C 3.828125 -3.242188 3.738281 -2.96875 3.5625 -2.6875 C 3.382812 -2.414062 3.125 -2.125 2.78125 -1.8125 C 2.445312 -1.507812 1.972656 -1.125 1.359375 -0.65625 C 1.328125 -0.632812 1.316406 -0.613281 1.328125 -0.59375 C 1.335938 -0.582031 1.363281 -0.578125 1.40625 -0.578125 C 2.269531 -0.578125 2.867188 -0.585938 3.203125 -0.609375 C 3.535156 -0.628906 3.773438 -0.691406 3.921875 -0.796875 C 4.078125 -0.898438 4.179688 -1.082031 4.234375 -1.34375 C 4.234375 -1.351562 4.253906 -1.359375 4.296875 -1.359375 C 4.347656 -1.359375 4.375 -1.347656 4.375 -1.328125 L 4.203125 -0.125 C 4.203125 -0.09375 4.191406 -0.0625 4.171875 -0.03125 C 4.148438 -0.0078125 4.125 0 4.09375 0 L 0.515625 0 C 0.472656 0 0.441406 -0.0195312 0.421875 -0.0625 C 0.398438 -0.101562 0.40625 -0.140625 0.4375 -0.171875 Z M 0.4375 -0.171875 "/></g></g></g><g fill="#000000" fill-opacity="1"><g transform="translate(182.892338, 248.345038)"><g><path d="M 1.625 -3.578125 C 1.625 -3.816406 1.597656 -3.988281 1.546875 -4.09375 C 1.503906 -4.207031 1.410156 -4.285156 1.265625 -4.328125 C 1.128906 -4.367188 0.910156 -4.390625 0.609375 -4.390625 C 0.585938 -4.390625 0.578125 -4.410156 0.578125 -4.453125 C 0.578125 -4.503906 0.585938 -4.53125 0.609375 -4.53125 C 0.835938 -4.53125 1.019531 -4.523438 1.15625 -4.515625 L 1.953125 -4.5 L 2.734375 -4.515625 C 2.867188 -4.523438 3.050781 -4.53125 3.28125 -4.53125 C 3.3125 -4.53125 3.328125 -4.503906 3.328125 -4.453125 C 3.328125 -4.410156 3.3125 -4.390625 3.28125 -4.390625 C 2.988281 -4.390625 2.773438 -4.367188 2.640625 -4.328125 C 2.503906 -4.285156 2.410156 -4.207031 2.359375 -4.09375 C 2.304688 -3.988281 2.28125 -3.816406 2.28125 -3.578125 L 2.28125 -0.953125 C 2.28125 -0.710938 2.300781 -0.535156 2.34375 -0.421875 C 2.394531 -0.316406 2.488281 -0.242188 2.625 -0.203125 C 2.757812 -0.160156 2.976562 -0.140625 3.28125 -0.140625 C 3.3125 -0.140625 3.328125 -0.113281 3.328125 -0.0625 C 3.328125 -0.0195312 3.3125 0 3.28125 0 C 3.0625 0 2.882812 -0.00390625 2.75 -0.015625 L 1.953125 -0.03125 L 1.15625 -0.015625 C 1.03125 -0.00390625 0.847656 0 0.609375 0 C 0.585938 0 0.578125 -0.0195312 0.578125 -0.0625 C 0.578125 -0.113281 0.585938 -0.140625 0.609375 -0.140625 C 0.898438 -0.140625 1.113281 -0.160156 1.25 -0.203125 C 1.382812 -0.242188 1.476562 -0.316406 1.53125 -0.421875 C 1.59375 -0.535156 1.625 -0.710938 1.625 -0.953125 Z M 1.625 -3.578125 "/></g></g></g><g fill="#000000" fill-opacity="1"><g transform="translate(188.331955, 248.345038)"><g><path d="M 1.15625 0.125 C 1 0.125 0.875 0.078125 0.78125 -0.015625 C 0.6875 -0.109375 0.640625 -0.234375 0.640625 -0.390625 C 0.640625 -0.535156 0.6875 -0.648438 0.78125 -0.734375 C 0.875 -0.828125 1 -0.875 1.15625 -0.875 C 1.320312 -0.875 1.445312 -0.828125 1.53125 -0.734375 C 1.625 -0.648438 1.671875 -0.535156 1.671875 -0.390625 C 1.671875 -0.234375 1.625 -0.109375 1.53125 -0.015625 C 1.445312 0.078125 1.320312 0.125 1.15625 0.125 Z M 1.15625 0.125 "/></g></g></g><g fill="#000000" fill-opacity="1"><g transform="translate(192.18954, 248.345038)"><g><path d="M 0.4375 -0.171875 C 1.125 -0.734375 1.65625 -1.191406 2.03125 -1.546875 C 2.40625 -1.910156 2.675781 -2.234375 2.84375 -2.515625 C 3.007812 -2.796875 3.09375 -3.078125 3.09375 -3.359375 C 3.09375 -3.671875 2.992188 -3.925781 2.796875 -4.125 C 2.609375 -4.320312 2.359375 -4.421875 2.046875 -4.421875 C 1.429688 -4.421875 0.988281 -3.9375 0.71875 -2.96875 C 0.71875 -2.957031 0.703125 -2.953125 0.671875 -2.953125 C 0.597656 -2.953125 0.566406 -2.96875 0.578125 -3 L 1.03125 -4.78125 C 1.03125 -4.800781 1.046875 -4.8125 1.078125 -4.8125 C 1.097656 -4.8125 1.117188 -4.804688 1.140625 -4.796875 C 1.160156 -4.785156 1.164062 -4.773438 1.15625 -4.765625 C 1.15625 -4.734375 1.15625 -4.691406 1.15625 -4.640625 C 1.15625 -4.515625 1.210938 -4.453125 1.328125 -4.453125 C 1.398438 -4.453125 1.515625 -4.476562 1.671875 -4.53125 C 1.992188 -4.632812 2.28125 -4.6875 2.53125 -4.6875 C 2.9375 -4.6875 3.253906 -4.578125 3.484375 -4.359375 C 3.710938 -4.140625 3.828125 -3.859375 3.828125 -3.515625 C 3.828125 -3.242188 3.738281 -2.96875 3.5625 -2.6875 C 3.382812 -2.414062 3.125 -2.125 2.78125 -1.8125 C 2.445312 -1.507812 1.972656 -1.125 1.359375 -0.65625 C 1.328125 -0.632812 1.316406 -0.613281 1.328125 -0.59375 C 1.335938 -0.582031 1.363281 -0.578125 1.40625 -0.578125 C 2.269531 -0.578125 2.867188 -0.585938 3.203125 -0.609375 C 3.535156 -0.628906 3.773438 -0.691406 3.921875 -0.796875 C 4.078125 -0.898438 4.179688 -1.082031 4.234375 -1.34375 C 4.234375 -1.351562 4.253906 -1.359375 4.296875 -1.359375 C 4.347656 -1.359375 4.375 -1.347656 4.375 -1.328125 L 4.203125 -0.125 C 4.203125 -0.09375 4.191406 -0.0625 4.171875 -0.03125 C 4.148438 -0.0078125 4.125 0 4.09375 0 L 0.515625 0 C 0.472656 0 0.441406 -0.0195312 0.421875 -0.0625 C 0.398438 -0.101562 0.40625 -0.140625 0.4375 -0.171875 Z M 0.4375 -0.171875 "/></g></g></g><g fill="#000000" fill-opacity="1"><g transform="translate(198.449469, 248.345038)"><g><path d="M 2.8125 0.15625 C 2.351562 0.15625 1.941406 0.0507812 1.578125 -0.15625 C 1.210938 -0.375 0.925781 -0.664062 0.71875 -1.03125 C 0.507812 -1.40625 0.40625 -1.828125 0.40625 -2.296875 C 0.40625 -2.765625 0.507812 -3.175781 0.71875 -3.53125 C 0.925781 -3.894531 1.210938 -4.175781 1.578125 -4.375 C 1.953125 -4.582031 2.367188 -4.6875 2.828125 -4.6875 C 3.285156 -4.6875 3.691406 -4.582031 4.046875 -4.375 C 4.410156 -4.164062 4.691406 -3.875 4.890625 -3.5 C 5.085938 -3.132812 5.1875 -2.722656 5.1875 -2.265625 C 5.1875 -1.804688 5.082031 -1.390625 4.875 -1.015625 C 4.675781 -0.648438 4.394531 -0.363281 4.03125 -0.15625 C 3.675781 0.0507812 3.269531 0.15625 2.8125 0.15625 Z M 2.953125 -0.015625 C 3.421875 -0.015625 3.769531 -0.203125 4 -0.578125 C 4.238281 -0.960938 4.359375 -1.476562 4.359375 -2.125 C 4.359375 -2.90625 4.203125 -3.5 3.890625 -3.90625 C 3.578125 -4.3125 3.179688 -4.515625 2.703125 -4.515625 C 2.234375 -4.515625 1.867188 -4.316406 1.609375 -3.921875 C 1.347656 -3.535156 1.21875 -3.023438 1.21875 -2.390625 C 1.21875 -1.691406 1.375 -1.117188 1.6875 -0.671875 C 2 -0.234375 2.421875 -0.015625 2.953125 -0.015625 Z M 2.953125 -0.015625 "/></g></g></g><g fill="#000000" fill-opacity="1"><g transform="translate(205.588305, 248.345038)"><g><path d="M 0.4375 -0.171875 C 1.125 -0.734375 1.65625 -1.191406 2.03125 -1.546875 C 2.40625 -1.910156 2.675781 -2.234375 2.84375 -2.515625 C 3.007812 -2.796875 3.09375 -3.078125 3.09375 -3.359375 C 3.09375 -3.671875 2.992188 -3.925781 2.796875 -4.125 C 2.609375 -4.320312 2.359375 -4.421875 2.046875 -4.421875 C 1.429688 -4.421875 0.988281 -3.9375 0.71875 -2.96875 C 0.71875 -2.957031 0.703125 -2.953125 0.671875 -2.953125 C 0.597656 -2.953125 0.566406 -2.96875 0.578125 -3 L 1.03125 -4.78125 C 1.03125 -4.800781 1.046875 -4.8125 1.078125 -4.8125 C 1.097656 -4.8125 1.117188 -4.804688 1.140625 -4.796875 C 1.160156 -4.785156 1.164062 -4.773438 1.15625 -4.765625 C 1.15625 -4.734375 1.15625 -4.691406 1.15625 -4.640625 C 1.15625 -4.515625 1.210938 -4.453125 1.328125 -4.453125 C 1.398438 -4.453125 1.515625 -4.476562 1.671875 -4.53125 C 1.992188 -4.632812 2.28125 -4.6875 2.53125 -4.6875 C 2.9375 -4.6875 3.253906 -4.578125 3.484375 -4.359375 C 3.710938 -4.140625 3.828125 -3.859375 3.828125 -3.515625 C 3.828125 -3.242188 3.738281 -2.96875 3.5625 -2.6875 C 3.382812 -2.414062 3.125 -2.125 2.78125 -1.8125 C 2.445312 -1.507812 1.972656 -1.125 1.359375 -0.65625 C 1.328125 -0.632812 1.316406 -0.613281 1.328125 -0.59375 C 1.335938 -0.582031 1.363281 -0.578125 1.40625 -0.578125 C 2.269531 -0.578125 2.867188 -0.585938 3.203125 -0.609375 C 3.535156 -0.628906 3.773438 -0.691406 3.921875 -0.796875 C 4.078125 -0.898438 4.179688 -1.082031 4.234375 -1.34375 C 4.234375 -1.351562 4.253906 -1.359375 4.296875 -1.359375 C 4.347656 -1.359375 4.375 -1.347656 4.375 -1.328125 L 4.203125 -0.125 C 4.203125 -0.09375 4.191406 -0.0625 4.171875 -0.03125 C 4.148438 -0.0078125 4.125 0 4.09375 0 L 0.515625 0 C 0.472656 0 0.441406 -0.0195312 0.421875 -0.0625 C 0.398438 -0.101562 0.40625 -0.140625 0.4375 -0.171875 Z M 0.4375 -0.171875 "/></g></g></g><g fill="#000000" fill-opacity="1"><g transform="translate(211.848234, 248.345038)"><g><path d="M 1.390625 -3.8125 C 1.296875 -3.8125 1.238281 -3.757812 1.21875 -3.65625 L 0.96875 -2.296875 C 2.050781 -2.285156 2.847656 -2.085938 3.359375 -1.703125 C 3.867188 -1.316406 4.125 -0.785156 4.125 -0.109375 C 4.125 0.335938 4.007812 0.742188 3.78125 1.109375 C 3.550781 1.472656 3.195312 1.820312 2.71875 2.15625 C 2.238281 2.5 1.597656 2.859375 0.796875 3.234375 L 0.78125 3.234375 C 0.75 3.234375 0.722656 3.210938 0.703125 3.171875 C 0.691406 3.140625 0.703125 3.113281 0.734375 3.09375 C 1.691406 2.613281 2.363281 2.128906 2.75 1.640625 C 3.144531 1.160156 3.34375 0.644531 3.34375 0.09375 C 3.34375 -0.550781 3.125 -1.050781 2.6875 -1.40625 C 2.25 -1.769531 1.617188 -1.953125 0.796875 -1.953125 C 0.753906 -1.953125 0.722656 -1.96875 0.703125 -2 C 0.679688 -2.03125 0.675781 -2.0625 0.6875 -2.09375 L 1.0625 -4.1875 C 1.0625 -4.238281 1.066406 -4.269531 1.078125 -4.28125 C 1.097656 -4.300781 1.140625 -4.3125 1.203125 -4.3125 C 2.191406 -4.4375 2.851562 -4.519531 3.1875 -4.5625 C 3.53125 -4.613281 3.75 -4.660156 3.84375 -4.703125 C 3.9375 -4.753906 4.003906 -4.84375 4.046875 -4.96875 C 4.054688 -4.988281 4.082031 -4.992188 4.125 -4.984375 C 4.164062 -4.984375 4.179688 -4.96875 4.171875 -4.9375 L 3.9375 -4.078125 C 3.90625 -3.984375 3.867188 -3.921875 3.828125 -3.890625 C 3.785156 -3.867188 3.710938 -3.859375 3.609375 -3.859375 Z M 1.390625 -3.8125 "/></g></g></g></svg>